# 3ds Max Wavefront OBJ Exporter v0.97b - (c)2007 guruware
# File Created: 24.01.2016 02:04:34

mtllib ba2.mtl

#
# object ba2
#

v  0.7988 0.8823 1.7975
v  0.7975 0.8824 -1.7632
v  0.7983 0.9571 -1.8454
v  0.7988 0.9584 1.8789
v  -0.7944 0.8823 -1.7637
v  -0.7988 0.8823 1.7980
v  -0.7990 0.9575 1.8791
v  -0.7952 0.9572 -1.8466
v  0.7988 -2.7886 1.7975
v  0.7989 -2.7886 1.8789
v  -0.7988 -2.7939 1.7980
v  -0.7993 -2.7939 1.8797
v  -0.7985 -2.7932 -1.7617
v  -0.7946 -2.7933 -1.8426
v  0.7991 -2.7931 -1.7657
v  0.7984 -2.7931 -1.8435
v  0.7937 0.4413 -2.3790
v  0.9000 0.4413 -2.3790
v  0.9000 0.0519 -2.3530
v  0.7937 0.0519 -2.3530
v  0.7937 0.7531 -2.4755
v  0.9000 0.7531 -2.4755
v  0.7937 1.0484 -2.5426
v  0.9000 1.0484 -2.5426
v  0.7937 1.3233 -2.5810
v  0.9000 1.3233 -2.5810
v  0.7937 1.5738 -2.5917
v  0.9000 1.5738 -2.5917
v  0.7937 1.7960 -2.5753
v  0.9000 1.7960 -2.5753
v  0.7937 1.9860 -2.5327
v  0.9000 1.9860 -2.5327
v  0.7937 2.1398 -2.4645
v  0.9000 2.1398 -2.4645
v  0.7937 2.2776 -2.3607
v  0.9000 2.2776 -2.3607
v  0.7937 2.4154 -2.2174
v  0.9000 2.4154 -2.2174
v  0.7937 2.5428 -2.0448
v  0.9000 2.5428 -2.0448
v  0.7937 2.6496 -1.8531
v  0.9000 2.6496 -1.8531
v  0.7937 2.7255 -1.6525
v  0.9000 2.7255 -1.6525
v  0.7937 2.7601 -1.4532
v  0.9000 2.7601 -1.4532
v  0.7937 2.7432 -1.2655
v  0.9000 2.7432 -1.2655
v  0.7937 2.7031 -1.0945
v  0.9000 2.7031 -1.0945
v  0.7937 2.6739 -0.9371
v  0.9000 2.6739 -0.9371
v  0.7937 2.6536 -0.7911
v  0.9000 2.6536 -0.7911
v  0.7937 2.6406 -0.6541
v  0.9000 2.6406 -0.6541
v  0.7937 2.6329 -0.5240
v  0.9000 2.6329 -0.5240
v  0.7937 2.6289 -0.3985
v  0.9000 2.6289 -0.3985
v  0.7937 2.6267 -0.2752
v  0.9000 2.6267 -0.2752
v  0.7937 2.6581 0.4454
v  0.9000 2.6581 0.4454
v  0.7937 2.6684 0.6486
v  0.9000 2.6684 0.6486
v  0.7937 2.6799 0.8561
v  0.9000 2.6799 0.8561
v  0.7937 2.6937 1.0724
v  0.9000 2.6937 1.0724
v  0.7937 2.7110 1.3017
v  0.9000 2.7110 1.3017
v  0.7937 2.7329 1.5484
v  0.9000 2.7329 1.5484
v  0.7937 2.7605 1.8170
v  0.9000 2.7605 1.8170
v  0.7937 2.7951 2.1116
v  0.9000 2.7951 2.1116
v  0.7937 2.7708 2.3629
v  0.9000 2.7708 2.3629
v  0.7937 2.6415 2.5125
v  0.9000 2.6415 2.5125
v  0.7937 2.4376 2.5817
v  0.9000 2.4376 2.5817
v  0.7937 2.1897 2.5917
v  0.9000 2.1897 2.5917
v  0.7937 1.9283 2.5638
v  0.9000 1.9283 2.5638
v  0.7937 1.6837 2.5191
v  0.9000 1.6837 2.5191
v  0.7937 1.4866 2.4791
v  0.9000 1.4866 2.4791
v  0.7937 1.3340 2.4554
v  0.9000 1.3340 2.4554
v  0.7937 1.2004 2.4444
v  0.9000 1.2004 2.4444
v  0.7937 1.0826 2.4440
v  0.9000 1.0826 2.4440
v  0.7937 0.9776 2.4521
v  0.9000 0.9776 2.4521
v  0.7937 0.8821 2.4665
v  0.9000 0.8821 2.4665
v  0.7937 0.7929 2.4852
v  0.9000 0.7929 2.4852
v  0.7937 0.7070 2.5060
v  0.9000 0.7070 2.5060
v  0.7937 0.2634 2.5463
v  0.9000 0.2634 2.5463
v  0.7937 -0.4088 2.5597
v  0.9000 -0.4088 2.5597
v  0.7937 -1.3319 2.5463
v  0.9000 -1.3319 2.5463
v  0.7937 -2.0981 2.5284
v  0.9000 -2.0981 2.5284
v  0.7937 -2.7934 2.4859
v  0.9000 -2.7934 2.4859
v  0.7937 -2.7951 -2.3881
v  0.9000 -2.7951 -2.3881
v  -0.7937 0.4413 -2.3790
v  -0.7937 0.0519 -2.3530
v  -0.9000 0.0519 -2.3530
v  -0.9000 0.4413 -2.3790
v  -0.7937 0.7531 -2.4755
v  -0.9000 0.7531 -2.4755
v  -0.7937 1.0484 -2.5426
v  -0.9000 1.0484 -2.5426
v  -0.7937 1.3233 -2.5810
v  -0.9000 1.3233 -2.5810
v  -0.7937 1.5738 -2.5917
v  -0.9000 1.5738 -2.5917
v  -0.7937 1.7960 -2.5753
v  -0.9000 1.7960 -2.5753
v  -0.7937 1.9860 -2.5327
v  -0.9000 1.9860 -2.5327
v  -0.7937 2.1398 -2.4645
v  -0.9000 2.1398 -2.4645
v  -0.7937 2.2776 -2.3607
v  -0.9000 2.2776 -2.3607
v  -0.7937 2.4154 -2.2174
v  -0.9000 2.4154 -2.2174
v  -0.7937 2.5428 -2.0448
v  -0.9000 2.5428 -2.0448
v  -0.7937 2.6496 -1.8531
v  -0.9000 2.6496 -1.8531
v  -0.7937 2.7255 -1.6525
v  -0.9000 2.7255 -1.6525
v  -0.7937 2.7601 -1.4532
v  -0.9000 2.7601 -1.4532
v  -0.7937 2.7432 -1.2655
v  -0.9000 2.7432 -1.2655
v  -0.7937 2.7031 -1.0945
v  -0.9000 2.7031 -1.0945
v  -0.7937 2.6739 -0.9371
v  -0.9000 2.6739 -0.9371
v  -0.7937 2.6536 -0.7911
v  -0.9000 2.6536 -0.7911
v  -0.7937 2.6406 -0.6541
v  -0.9000 2.6406 -0.6541
v  -0.7937 2.6329 -0.5240
v  -0.9000 2.6329 -0.5240
v  -0.7937 2.6289 -0.3985
v  -0.9000 2.6289 -0.3985
v  -0.7937 2.6267 -0.2752
v  -0.9000 2.6267 -0.2752
v  -0.7937 2.6581 0.4454
v  -0.9000 2.6581 0.4454
v  -0.7937 2.6684 0.6486
v  -0.9000 2.6684 0.6486
v  -0.7937 2.6799 0.8561
v  -0.9000 2.6799 0.8561
v  -0.7937 2.6937 1.0724
v  -0.9000 2.6937 1.0724
v  -0.7937 2.7110 1.3017
v  -0.9000 2.7110 1.3017
v  -0.7937 2.7329 1.5484
v  -0.9000 2.7329 1.5484
v  -0.7937 2.7605 1.8170
v  -0.9000 2.7605 1.8170
v  -0.7937 2.7951 2.1116
v  -0.9000 2.7951 2.1116
v  -0.7937 2.7708 2.3629
v  -0.9000 2.7708 2.3629
v  -0.7937 2.6415 2.5125
v  -0.9000 2.6415 2.5125
v  -0.7937 2.4376 2.5817
v  -0.9000 2.4376 2.5817
v  -0.7937 2.1897 2.5917
v  -0.9000 2.1897 2.5917
v  -0.7937 1.9283 2.5638
v  -0.9000 1.9283 2.5638
v  -0.7937 1.6837 2.5191
v  -0.9000 1.6837 2.5191
v  -0.7937 1.4866 2.4791
v  -0.9000 1.4866 2.4791
v  -0.7937 1.3340 2.4554
v  -0.9000 1.3340 2.4554
v  -0.7937 1.2004 2.4444
v  -0.9000 1.2004 2.4444
v  -0.7937 1.0826 2.4440
v  -0.9000 1.0826 2.4440
v  -0.7937 0.9776 2.4521
v  -0.9000 0.9776 2.4521
v  -0.7937 0.8821 2.4665
v  -0.9000 0.8821 2.4665
v  -0.7937 0.7929 2.4852
v  -0.9000 0.7929 2.4852
v  -0.7937 0.7070 2.5060
v  -0.9000 0.7070 2.5060
v  -0.7937 0.2634 2.5463
v  -0.9000 0.2634 2.5463
v  -0.7937 -0.4088 2.5597
v  -0.9000 -0.4088 2.5597
v  -0.7937 -1.3319 2.5463
v  -0.9000 -1.3319 2.5463
v  -0.7937 -2.0981 2.5284
v  -0.9000 -2.0981 2.5284
v  -0.7937 -2.7934 2.4859
v  -0.9000 -2.7934 2.4859
v  -0.7937 -2.7951 -2.3881
v  -0.9000 -2.7951 -2.3881
# 220 vertices

vn 1.0000 -0.0003 -0.0001
vn 0.9999 -0.0109 -0.0004
vn 0.9999 -0.0106 -0.0004
vn 1.0000 -0.0002 -0.0001
vn -0.9999 -0.0113 -0.0010
vn -1.0000 -0.0013 -0.0012
vn -1.0000 -0.0016 -0.0012
vn -0.9999 -0.0114 -0.0010
vn 1.0000 0.0000 -0.0004
vn 1.0000 0.0000 -0.0003
vn 0.0033 -1.0000 -0.0006
vn 0.0033 -1.0000 -0.0000
vn 0.0033 -1.0000 -0.0001
vn -1.0000 0.0001 -0.0026
vn -1.0000 -0.0000 -0.0068
vn -1.0000 0.0001 -0.0025
vn -0.9989 -0.0002 -0.0471
vn -0.9999 0.0011 0.0103
vn -1.0000 0.0011 0.0088
vn -0.9989 -0.0002 -0.0479
vn 0.0001 -1.0000 0.0001
vn 0.0001 -1.0000 0.0015
vn 0.0001 -1.0000 0.0014
vn 1.0000 0.0000 0.0094
vn 1.0000 0.0004 -0.0091
vn 1.0000 0.0004 -0.0089
vn 1.0000 0.0000 0.0096
vn -0.0002 0.7073 0.7069
vn 0.0004 0.7068 -0.7074
vn 0.0005 0.7068 -0.7075
vn -0.0002 0.7068 0.7075
vn 0.0005 0.0002 1.0000
vn 0.0004 0.0001 1.0000
vn -0.0005 -0.0005 -1.0000
vn -0.0002 -0.0007 -1.0000
vn -0.0002 -0.7069 0.7073
vn 0.0003 -0.7071 0.7071
vn -0.0002 -0.7071 -0.7071
vn -0.0002 -0.7068 -0.7074
vn -0.0003 -0.0000 -1.0000
vn 0.0017 -0.0003 1.0000
vn 0.0025 -0.0007 1.0000
vn 0.0000 -0.0668 -0.9978
vn 0.0000 -0.2587 -0.9660
vn 0.0000 -0.2955 -0.9554
vn 0.0000 -0.1802 -0.9836
vn 0.0000 -0.0907 -0.9959
vn 0.0000 0.0155 -0.9999
vn 0.0000 0.1467 -0.9892
vn 0.0000 0.3136 -0.9496
vn 0.0000 0.5067 -0.8621
vn 0.0000 0.6634 -0.7483
vn 0.0000 0.7643 -0.6448
vn 0.0000 0.8408 -0.5414
vn 0.0000 0.9069 -0.4213
vn 0.0000 0.9646 -0.2636
vn 0.0000 0.9992 -0.0411
vn 0.0000 0.9872 0.1593
vn 0.0000 0.9786 0.2055
vn 0.0000 0.9871 0.1601
vn 0.0000 0.9932 0.1161
vn 0.0000 0.9971 0.0767
vn 0.0000 0.9990 0.0453
vn 0.0000 0.9997 0.0251
vn 0.0000 0.9998 0.0181
vn 0.0000 0.9991 -0.0435
vn 0.0000 0.9986 -0.0531
vn 0.0000 0.9987 -0.0509
vn 0.0000 0.9982 -0.0595
vn 0.0000 0.9976 -0.0694
vn 0.0000 0.9967 -0.0817
vn 0.0000 0.9954 -0.0954
vn 0.0000 0.9940 -0.1095
vn 0.0000 0.9999 -0.0102
vn 0.0000 0.9193 0.3936
vn 0.0000 0.5585 0.8295
vn 0.0000 0.1827 0.9832
vn 0.0000 -0.0330 0.9995
vn 0.0000 -0.1430 0.9897
vn 0.0000 -0.1894 0.9819
vn 0.0000 -0.1763 0.9843
vn 0.0000 -0.1177 0.9931
vn 0.0000 -0.0426 0.9991
vn 0.0000 0.0367 0.9993
vn 0.0000 0.1131 0.9936
vn 0.0000 0.1772 0.9842
vn 0.0000 0.2199 0.9755
vn 0.0000 0.2349 0.9720
vn 0.0000 0.0905 0.9959
vn 0.0000 0.0200 0.9998
vn 0.0000 -0.0146 0.9999
vn 0.0000 -0.0234 0.9997
vn 0.0000 -0.0610 0.9981
vn 0.0000 -1.0000 0.0003
vn 0.0000 0.0123 -0.9999
vn 1.0000 0.0000 0.0000
vn 1.0000 -0.0000 0.0000
vn 1.0000 -0.0000 -0.0000
vn -1.0000 -0.0000 -0.0000
vn -1.0000 0.0000 -0.0000
vn -0.0000 -0.2587 -0.9660
vn -0.0000 -0.1802 -0.9836
vn -0.0000 -0.0907 -0.9959
vn -0.0000 0.0155 -0.9999
vn -0.0000 0.1467 -0.9892
vn -0.0000 0.3136 -0.9496
vn -0.0000 0.9069 -0.4213
vn -0.0000 0.9646 -0.2636
vn -0.0000 0.9992 -0.0411
vn -0.0000 0.9976 -0.0694
vn -0.0000 0.9967 -0.0817
vn -0.0000 0.9954 -0.0954
vn -1.0000 0.0000 0.0000
vn -1.0000 -0.0000 0.0000
vn 1.0000 0.0000 -0.0000
# 115 vertex normals

vt 0.9729 0.6000 1.3909
vt 0.9777 0.9334 0.5010
vt 1.4237 0.7576 0.4463
vt 0.6683 0.0066 1.4450
vt 0.8718 0.9308 0.5007
vt 0.8765 0.6000 1.3912
vt 0.6661 0.2024 1.4451
vt 0.6529 1.3475 0.4456
vt 0.9777 0.9334 1.3909
vt 0.9952 0.0066 1.4450
vt 0.8718 0.9308 1.3912
vt 0.9990 0.2035 1.4456
vt 0.0203 0.0003 0.0000
vt 1.0000 0.0003 0.0000
vt 1.0000 0.0000 0.0000
vt 0.0002 0.0002 0.0000
vt 0.6759 3.3882 0.5020
vt 1.6494 1.3478 0.4482
vt 1.4466 2.8009 0.4994
vt 2.4200 0.7577 0.4476
vt 0.3479 0.2020 0.0000
vt 0.6620 0.2019 0.0000
vt 0.6622 0.0033 0.0000
vt 0.3479 0.0028 0.0000
vt 0.3486 0.1985 0.0000
vt 0.0000 0.1980 0.0000
vt 0.0000 0.0041 0.0000
vt 0.3484 0.0024 0.0000
vt 0.8273 0.4380 0.0000
vt 0.8273 0.9130 0.0000
vt 0.6914 0.9170 0.0000
vt 0.6942 0.4334 0.0000
vt 0.5069 0.5800 1.5000
vt 0.1942 0.9615 0.5000
vt 0.2241 0.9577 0.5000
vt 0.5094 0.6258 1.5000
vt 0.4976 0.5432 1.5000
vt 0.1703 0.9753 0.5000
vt 0.4911 0.5084 1.5000
vt 0.1476 0.9850 0.5000
vt 0.4874 0.4760 1.5000
vt 0.1265 0.9905 0.5000
vt 0.4864 0.4465 1.5000
vt 0.1072 0.9920 0.5000
vt 0.4879 0.4203 1.5000
vt 0.0902 0.9897 0.5000
vt 0.4921 0.3979 1.5000
vt 0.0756 0.9835 0.5000
vt 0.4986 0.3798 1.5000
vt 0.0638 0.9738 0.5000
vt 0.5086 0.3635 1.5000
vt 0.0532 0.9588 0.5000
vt 0.5224 0.3473 1.5000
vt 0.0426 0.9382 0.5000
vt 0.5391 0.3323 1.5000
vt 0.0328 0.9134 0.5000
vt 0.5576 0.3197 1.5000
vt 0.0246 0.8859 0.5000
vt 0.5769 0.3108 1.5000
vt 0.0188 0.8570 0.5000
vt 0.5961 0.3067 1.5000
vt 0.0161 0.8284 0.5000
vt 0.6142 0.3087 1.5000
vt 0.0174 0.8014 0.5000
vt 0.6307 0.3134 1.5000
vt 0.0205 0.7768 0.5000
vt 0.6458 0.3168 1.5000
vt 0.0227 0.7542 0.5000
vt 0.6599 0.3192 1.5000
vt 0.0243 0.7332 0.5000
vt 0.6731 0.3208 1.5000
vt 0.0253 0.7135 0.5000
vt 0.6857 0.3217 1.5000
vt 0.0259 0.6948 0.5000
vt 0.6978 0.3221 1.5000
vt 0.0262 0.6768 0.5000
vt 0.7096 0.3224 1.5000
vt 0.0264 0.6591 0.5000
vt 0.7791 0.3187 1.5000
vt 0.0240 0.5555 0.5000
vt 0.7987 0.3175 1.5000
vt 0.0232 0.5263 0.5000
vt 0.8187 0.3161 1.5000
vt 0.0223 0.4965 0.5000
vt 0.8395 0.3145 1.5000
vt 0.0212 0.4654 0.5000
vt 0.8616 0.3125 1.5000
vt 0.0199 0.4324 0.5000
vt 0.8854 0.3099 1.5000
vt 0.0182 0.3970 0.5000
vt 0.9113 0.3066 1.5000
vt 0.0161 0.3584 0.5000
vt 0.9397 0.3026 1.5000
vt 0.0134 0.3160 0.5000
vt 0.9639 0.3054 1.5000
vt 0.0153 0.2799 0.5000
vt 0.9783 0.3207 1.5000
vt 0.0252 0.2584 0.5000
vt 0.9850 0.3447 1.5000
vt 0.0409 0.2485 0.5000
vt 0.9860 0.3739 1.5000
vt 0.0599 0.2470 0.5000
vt 0.9833 0.4047 1.5000
vt 0.0800 0.2510 0.5000
vt 0.9790 0.4335 1.5000
vt 0.0988 0.2574 0.5000
vt 0.9751 0.4568 1.5000
vt 0.1139 0.2632 0.5000
vt 0.9728 0.4748 1.5000
vt 0.1257 0.2666 0.5000
vt 0.9718 0.4905 1.5000
vt 0.1359 0.2682 0.5000
vt 0.9717 0.5044 1.5000
vt 0.1450 0.2682 0.5000
vt 0.9725 0.5168 1.5000
vt 0.1530 0.2671 0.5000
vt 0.9739 0.5280 1.5000
vt 0.1604 0.2650 0.5000
vt 0.9757 0.5385 1.5000
vt 0.1672 0.2623 0.5000
vt 0.9777 0.5486 1.5000
vt 0.1738 0.2593 0.5000
vt 0.9816 0.6009 1.5000
vt 0.2079 0.2535 0.5000
vt 0.9829 0.6801 1.5000
vt 0.2595 0.2516 0.5000
vt 0.9816 0.7889 1.5000
vt 0.3304 0.2535 0.5000
vt 0.9798 0.8792 1.5000
vt 0.3893 0.2561 0.5000
vt 0.9758 0.9612 1.5000
vt 0.4427 0.2622 0.5000
vt 0.5060 0.9614 1.5000
vt 0.4428 0.9628 0.5000
# 134 texture coords

g ba2
usemtl Material__56
s 4
f 1/1/1 2/2/2 3/3/3 4/4/4 
f 5/5/5 6/6/6 7/7/7 8/8/8 
s 1
f 9/9/9 1/1/10 4/4/10 10/10/9 
s 4
f 11/11/11 9/9/12 10/10/13 12/12/11 
s 2
f 6/13/14 11/14/15 12/15/15 7/16/16 
s 1
f 13/17/17 5/5/18 8/8/19 14/18/20 
s 4
f 15/19/21 13/17/22 14/18/23 16/20/21 
s 2
f 2/2/24 15/19/25 16/20/26 3/3/27 
s 16
f 4/21/28 3/22/29 8/23/30 7/24/31 
f 7/7/31 12/12/32 10/10/33 4/4/28 
f 3/25/29 16/26/34 14/27/35 8/28/30 
f 5/5/36 2/2/37 1/1/38 6/6/39 
f 9/9/40 11/11/40 6/6/39 1/1/38 
f 13/29/41 15/30/42 2/31/37 5/32/36 
usemtl Material__76
s 1
f 17/33/43 18/34/43 19/35/43 20/36/43 
s 4
f 21/37/44 22/38/44 18/34/45 17/33/45 
f 23/39/46 24/40/46 22/38/44 21/37/44 
f 25/41/47 26/42/47 24/40/46 23/39/46 
f 27/43/48 28/44/48 26/42/47 25/41/47 
f 29/45/49 30/46/49 28/44/48 27/43/48 
f 31/47/50 32/48/50 30/46/49 29/45/49 
f 33/49/51 34/50/51 32/48/50 31/47/50 
f 35/51/52 36/52/52 34/50/51 33/49/51 
f 37/53/53 38/54/53 36/52/52 35/51/52 
f 39/55/54 40/56/54 38/54/53 37/53/53 
f 41/57/55 42/58/55 40/56/54 39/55/54 
f 43/59/56 44/60/56 42/58/55 41/57/55 
f 45/61/57 46/62/57 44/60/56 43/59/56 
f 47/63/58 48/64/58 46/62/57 45/61/57 
f 49/65/59 50/66/59 48/64/58 47/63/58 
f 51/67/60 52/68/60 50/66/59 49/65/59 
f 53/69/61 54/70/61 52/68/60 51/67/60 
f 55/71/62 56/72/62 54/70/61 53/69/61 
f 57/73/63 58/74/63 56/72/62 55/71/62 
f 59/75/64 60/76/64 58/74/63 57/73/63 
f 61/77/65 62/78/65 60/76/64 59/75/64 
s 2
f 63/79/66 64/80/66 62/78/66 61/77/66 
s 4
f 65/81/67 66/82/67 64/80/68 63/79/68 
f 67/83/69 68/84/69 66/82/67 65/81/67 
f 69/85/70 70/86/70 68/84/69 67/83/69 
f 71/87/71 72/88/71 70/86/70 69/85/70 
f 73/89/72 74/90/72 72/88/71 71/87/71 
f 75/91/73 76/92/73 74/90/72 73/89/72 
f 77/93/74 78/94/74 76/92/73 75/91/73 
f 79/95/75 80/96/75 78/94/74 77/93/74 
f 81/97/76 82/98/76 80/96/75 79/95/75 
f 83/99/77 84/100/77 82/98/76 81/97/76 
f 85/101/78 86/102/78 84/100/77 83/99/77 
f 87/103/79 88/104/79 86/102/78 85/101/78 
f 89/105/80 90/106/80 88/104/79 87/103/79 
f 91/107/81 92/108/81 90/106/80 89/105/80 
f 93/109/82 94/110/82 92/108/81 91/107/81 
f 95/111/83 96/112/83 94/110/82 93/109/82 
f 97/113/84 98/114/84 96/112/83 95/111/83 
f 99/115/85 100/116/85 98/114/84 97/113/84 
f 101/117/86 102/118/86 100/116/85 99/115/85 
f 103/119/87 104/120/87 102/118/86 101/117/86 
f 105/121/88 106/122/88 104/120/87 103/119/87 
s 2
f 107/123/89 108/124/89 106/122/89 105/121/89 
s 4
f 109/125/90 110/126/90 108/124/90 107/123/90 
s 2
f 111/127/91 112/128/91 110/126/91 109/125/91 
s 4
f 113/129/92 114/130/92 112/128/92 111/127/92 
s 2
f 115/131/93 116/132/93 114/130/93 113/129/93 
s 4
f 117/133/94 118/134/94 116/132/94 115/131/94 
s 2
f 20/36/95 19/35/95 118/134/95 117/133/95 
s 16
f 116/132/96 118/134/97 19/35/96 114/130/96 
f 80/96/97 82/98/97 84/100/97 78/94/97 
f 78/94/97 84/100/97 86/102/97 76/92/96 
f 76/92/96 86/102/97 88/104/96 90/106/97 
f 74/90/97 76/92/96 90/106/97 92/108/97 
f 72/88/97 74/90/97 92/108/97 94/110/97 
f 70/86/96 72/88/97 94/110/97 68/84/96 
f 66/82/96 68/84/96 94/110/97 64/80/96 
f 62/78/96 64/80/96 94/110/97 60/76/97 
f 58/74/98 60/76/97 94/110/97 56/72/96 
f 54/70/96 56/72/96 94/110/97 52/68/96 
f 50/66/96 52/68/96 94/110/97 48/64/97 
f 46/62/97 48/64/97 94/110/97 44/60/96 
f 42/58/97 44/60/96 94/110/97 40/56/96 
f 38/54/97 40/56/96 94/110/97 36/52/97 
f 34/50/96 36/52/97 94/110/97 32/48/96 
f 30/46/97 32/48/96 94/110/97 28/44/97 
f 26/42/96 28/44/97 94/110/97 96/112/97 
f 24/40/96 26/42/96 96/112/97 22/38/96 
f 18/34/97 22/38/96 96/112/97 98/114/96 
f 18/34/97 98/114/96 100/116/96 102/118/96 
f 18/34/97 102/118/96 104/120/96 19/35/96 
f 19/35/96 104/120/96 106/122/96 108/124/96 
f 19/35/96 108/124/96 110/126/96 112/128/97 
f 19/35/96 112/128/97 114/130/96 
f 83/99/99 81/97/99 79/95/100 77/93/99 
f 85/101/100 83/99/99 77/93/99 75/91/99 
f 87/103/100 85/101/100 75/91/99 89/105/100 
f 89/105/100 75/91/99 73/89/100 91/107/99 
f 91/107/99 73/89/100 71/87/100 93/109/99 
f 93/109/99 71/87/100 69/85/99 67/83/99 
f 93/109/99 67/83/99 65/81/100 63/79/100 
f 93/109/99 63/79/100 61/77/99 59/75/99 
f 93/109/99 59/75/99 57/73/100 55/71/99 
f 93/109/99 55/71/99 53/69/99 51/67/99 
f 93/109/99 51/67/99 49/65/99 47/63/100 
f 93/109/99 47/63/100 45/61/100 43/59/100 
f 93/109/99 43/59/100 41/57/100 39/55/99 
f 93/109/99 39/55/99 37/53/100 35/51/99 
f 93/109/99 35/51/99 33/49/99 31/47/99 
f 93/109/99 31/47/99 29/45/100 27/43/100 
f 93/109/99 27/43/100 25/41/100 95/111/99 
f 95/111/99 25/41/100 23/39/99 21/37/99 
f 95/111/99 21/37/99 17/33/100 97/113/99 
f 99/115/100 97/113/99 17/33/100 101/117/100 
f 103/119/99 101/117/100 17/33/100 20/36/99 
f 105/121/100 103/119/99 20/36/99 107/123/100 
f 109/125/99 107/123/100 20/36/99 111/127/99 
f 113/129/99 111/127/99 20/36/99 115/131/100 
f 115/131/100 20/36/99 117/133/100 
s 1
f 119/33/43 120/36/43 121/35/43 122/34/43 
s 4
f 123/37/44 119/33/45 122/34/45 124/38/101 
f 125/39/102 123/37/44 124/38/101 126/40/102 
f 127/41/103 125/39/102 126/40/102 128/42/103 
f 129/43/104 127/41/103 128/42/103 130/44/104 
f 131/45/105 129/43/104 130/44/104 132/46/105 
f 133/47/106 131/45/105 132/46/105 134/48/50 
f 135/49/51 133/47/106 134/48/50 136/50/51 
f 137/51/52 135/49/51 136/50/51 138/52/52 
f 139/53/53 137/51/52 138/52/52 140/54/53 
f 141/55/54 139/53/53 140/54/53 142/56/54 
f 143/57/55 141/55/54 142/56/54 144/58/107 
f 145/59/108 143/57/55 144/58/107 146/60/108 
f 147/61/109 145/59/108 146/60/108 148/62/57 
f 149/63/58 147/61/109 148/62/57 150/64/58 
f 151/65/59 149/63/58 150/64/58 152/66/59 
f 153/67/60 151/65/59 152/66/59 154/68/60 
f 155/69/61 153/67/60 154/68/60 156/70/61 
f 157/71/62 155/69/61 156/70/61 158/72/62 
f 159/73/63 157/71/62 158/72/62 160/74/63 
f 161/75/64 159/73/63 160/74/63 162/76/64 
f 163/77/65 161/75/64 162/76/64 164/78/65 
s 2
f 165/79/66 163/77/66 164/78/66 166/80/66 
s 4
f 167/81/67 165/79/68 166/80/68 168/82/67 
f 169/83/69 167/81/67 168/82/67 170/84/69 
f 171/85/70 169/83/69 170/84/69 172/86/110 
f 173/87/111 171/85/70 172/86/110 174/88/111 
f 175/89/112 173/87/111 174/88/111 176/90/72 
f 177/91/73 175/89/112 176/90/72 178/92/73 
f 179/93/74 177/91/73 178/92/73 180/94/74 
f 181/95/75 179/93/74 180/94/74 182/96/75 
f 183/97/76 181/95/75 182/96/75 184/98/76 
f 185/99/77 183/97/76 184/98/76 186/100/77 
f 187/101/78 185/99/77 186/100/77 188/102/78 
f 189/103/79 187/101/78 188/102/78 190/104/79 
f 191/105/80 189/103/79 190/104/79 192/106/80 
f 193/107/81 191/105/80 192/106/80 194/108/81 
f 195/109/82 193/107/81 194/108/81 196/110/82 
f 197/111/83 195/109/82 196/110/82 198/112/83 
f 199/113/84 197/111/83 198/112/83 200/114/84 
f 201/115/85 199/113/84 200/114/84 202/116/85 
f 203/117/86 201/115/85 202/116/85 204/118/86 
f 205/119/87 203/117/86 204/118/86 206/120/87 
f 207/121/88 205/119/87 206/120/87 208/122/88 
s 2
f 209/123/89 207/121/89 208/122/89 210/124/89 
s 4
f 211/125/90 209/123/90 210/124/90 212/126/90 
s 2
f 213/127/91 211/125/91 212/126/91 214/128/91 
s 4
f 215/129/92 213/127/92 214/128/92 216/130/92 
s 2
f 217/131/93 215/129/93 216/130/93 218/132/93 
s 4
f 219/133/94 217/131/94 218/132/94 220/134/94 
s 2
f 120/36/95 219/133/95 220/134/95 121/35/95 
s 16
f 186/100/113 184/98/113 182/96/113 180/94/113 
f 188/102/113 186/100/113 180/94/113 178/92/113 
f 190/104/113 188/102/113 178/92/113 192/106/113 
f 192/106/113 178/92/113 176/90/113 194/108/113 
f 194/108/113 176/90/113 174/88/113 196/110/113 
f 196/110/113 174/88/113 172/86/113 170/84/113 
f 196/110/113 170/84/113 168/82/113 166/80/113 
f 196/110/113 166/80/113 164/78/113 162/76/114 
f 196/110/113 162/76/114 160/74/113 158/72/113 
f 196/110/113 158/72/113 156/70/114 154/68/113 
f 196/110/113 154/68/113 152/66/99 150/64/113 
f 196/110/113 150/64/113 148/62/113 146/60/113 
f 196/110/113 146/60/113 144/58/113 142/56/113 
f 196/110/113 142/56/113 140/54/113 138/52/113 
f 196/110/113 138/52/113 136/50/113 134/48/113 
f 196/110/113 134/48/113 132/46/113 130/44/113 
f 196/110/113 130/44/113 128/42/113 198/112/113 
f 198/112/113 128/42/113 126/40/113 124/38/113 
f 198/112/113 124/38/113 122/34/113 200/114/113 
f 202/116/113 200/114/113 122/34/113 204/118/113 
f 206/120/113 204/118/113 122/34/113 121/35/113 
f 208/122/113 206/120/113 121/35/113 210/124/113 
f 212/126/113 210/124/113 121/35/113 214/128/113 
f 216/130/113 214/128/113 121/35/113 218/132/113 
f 218/132/113 121/35/113 220/134/113 
f 217/131/98 219/133/98 120/36/98 215/129/98 
f 181/95/98 183/97/98 185/99/98 179/93/98 
f 179/93/98 185/99/98 187/101/98 177/91/98 
f 177/91/98 187/101/98 189/103/98 191/105/98 
f 175/89/98 177/91/98 191/105/98 193/107/98 
f 173/87/98 175/89/98 193/107/98 195/109/98 
f 171/85/98 173/87/98 195/109/98 169/83/98 
f 167/81/98 169/83/98 195/109/98 165/79/98 
f 163/77/98 165/79/98 195/109/98 161/75/115 
f 159/73/98 161/75/115 195/109/98 157/71/115 
f 155/69/98 157/71/115 195/109/98 153/67/98 
f 151/65/96 153/67/98 195/109/98 149/63/98 
f 147/61/115 149/63/98 195/109/98 145/59/98 
f 143/57/98 145/59/98 195/109/98 141/55/98 
f 139/53/98 141/55/98 195/109/98 137/51/98 
f 135/49/98 137/51/98 195/109/98 133/47/98 
f 131/45/98 133/47/98 195/109/98 129/43/98 
f 127/41/98 129/43/98 195/109/98 197/111/98 
f 125/39/98 127/41/98 197/111/98 123/37/98 
f 119/33/98 123/37/98 197/111/98 199/113/98 
f 119/33/98 199/113/98 201/115/98 203/117/98 
f 119/33/98 203/117/98 205/119/98 120/36/98 
f 120/36/98 205/119/98 207/121/98 209/123/98 
f 120/36/98 209/123/98 211/125/98 213/127/98 
f 120/36/98 213/127/98 215/129/98 
# 212 polygons - 4 triangles

