# 3ds Max Wavefront OBJ Exporter v0.97b - (c)2007 guruware
# File Created: 24.01.2016 02:04:30

mtllib bu2.mtl

#
# object bu2
#

v  0.7988 0.8922 1.9690
v  0.7975 0.8922 -1.5918
v  0.7983 0.9669 -1.6739
v  0.7988 0.9682 2.0504
v  -0.7944 0.8922 -1.5922
v  -0.7988 0.8922 1.9694
v  -0.7990 0.9674 2.0505
v  -0.7952 0.9671 -1.6751
v  0.7988 -2.7788 1.9690
v  0.7989 -2.7788 2.0504
v  -0.7988 -2.7840 1.9695
v  -0.7993 -2.7841 2.0512
v  -0.7985 -2.7834 -1.5903
v  -0.7946 -2.7835 -1.6711
v  0.7991 -2.7833 -1.5942
v  0.7984 -2.7833 -1.6720
v  0.7937 1.2235 -2.2072
v  0.9000 1.2235 -2.2072
v  0.9000 0.9069 -2.2568
v  0.7937 0.9069 -2.2568
v  0.7937 1.5324 -2.1411
v  0.9000 1.5324 -2.1411
v  0.7937 1.8257 -2.0424
v  0.9000 1.8257 -2.0424
v  0.7937 2.0956 -1.8947
v  0.9000 2.0956 -1.8947
v  0.7937 2.3345 -1.6817
v  0.9000 2.3345 -1.6817
v  0.7937 2.5344 -1.3869
v  0.9000 2.5344 -1.3869
v  0.7937 2.6877 -0.9941
v  0.9000 2.6877 -0.9941
v  0.7937 2.7720 -0.5789
v  0.9000 2.7720 -0.5789
v  0.7937 2.7841 -0.2245
v  0.9000 2.7841 -0.2245
v  0.7937 2.7444 0.0736
v  0.9000 2.7444 0.0736
v  0.7937 2.6737 0.3204
v  0.9000 2.6737 0.3204
v  0.7937 2.5926 0.5204
v  0.9000 2.5926 0.5204
v  0.7937 2.5217 0.6783
v  0.9000 2.5217 0.6783
v  0.7937 2.4817 0.7991
v  0.9000 2.4817 0.7991
v  0.7937 2.4724 0.9133
v  0.9000 2.4724 0.9133
v  0.7937 2.4770 1.0422
v  0.9000 2.4770 1.0422
v  0.7937 2.4905 1.1756
v  0.9000 2.4905 1.1756
v  0.7937 2.5081 1.3034
v  0.9000 2.5081 1.3034
v  0.7937 2.5250 1.4156
v  0.9000 2.5250 1.4156
v  0.7937 2.5363 1.5022
v  0.9000 2.5363 1.5022
v  0.7937 2.5372 1.5530
v  0.9000 2.5372 1.5530
v  0.7937 2.5305 1.6268
v  0.9000 2.5305 1.6268
v  0.7937 2.5109 1.7688
v  0.9000 2.5109 1.7688
v  0.7937 2.4612 1.9493
v  0.9000 2.4612 1.9493
v  0.7937 2.3642 2.1383
v  0.9000 2.3642 2.1383
v  0.7937 2.2028 2.3061
v  0.9000 2.2028 2.3061
v  0.7937 1.9598 2.4228
v  0.9000 1.9598 2.4228
v  0.7937 1.6181 2.4584
v  0.9000 1.6181 2.4584
v  0.7937 -2.7840 2.4652
v  0.9000 -2.7840 2.4652
v  0.7937 -2.7761 -2.3784
v  0.9000 -2.7761 -2.3784
v  0.7937 -2.5380 -2.4125
v  0.9000 -2.5380 -2.4125
v  0.7937 -2.3031 -2.4416
v  0.9000 -2.3031 -2.4416
v  0.7937 -2.0756 -2.4608
v  0.9000 -2.0756 -2.4608
v  0.7937 -1.8593 -2.4652
v  0.9000 -1.8593 -2.4652
v  0.7937 -1.6582 -2.4499
v  0.9000 -1.6582 -2.4499
v  0.7937 -1.4763 -2.4100
v  0.9000 -1.4763 -2.4100
v  0.7937 -1.3175 -2.3406
v  0.9000 -1.3175 -2.3406
v  0.7937 -1.2030 -2.2461
v  0.9000 -1.2030 -2.2461
v  0.7937 -1.1140 -2.1471
v  0.9000 -1.1140 -2.1471
v  0.7937 -0.9945 -2.0627
v  0.9000 -0.9945 -2.0627
v  0.7937 -0.7886 -2.0123
v  0.9000 -0.7886 -2.0123
v  0.7937 -0.4404 -2.0151
v  0.9000 -0.4404 -2.0151
v  0.7937 0.1061 -2.0902
v  0.9000 0.1061 -2.0902
v  -0.7937 1.2235 -2.2072
v  -0.7937 0.9069 -2.2568
v  -0.9000 0.9069 -2.2568
v  -0.9000 1.2235 -2.2072
v  -0.7937 1.5324 -2.1411
v  -0.9000 1.5324 -2.1411
v  -0.7937 1.8257 -2.0424
v  -0.9000 1.8257 -2.0424
v  -0.7937 2.0956 -1.8947
v  -0.9000 2.0956 -1.8947
v  -0.7937 2.3345 -1.6817
v  -0.9000 2.3345 -1.6817
v  -0.7937 2.5344 -1.3869
v  -0.9000 2.5344 -1.3869
v  -0.7937 2.6877 -0.9941
v  -0.9000 2.6877 -0.9941
v  -0.7937 2.7720 -0.5789
v  -0.9000 2.7720 -0.5789
v  -0.7937 2.7841 -0.2245
v  -0.9000 2.7841 -0.2245
v  -0.7937 2.7444 0.0736
v  -0.9000 2.7444 0.0736
v  -0.7937 2.6737 0.3204
v  -0.9000 2.6737 0.3204
v  -0.7937 2.5926 0.5204
v  -0.9000 2.5926 0.5204
v  -0.7937 2.5217 0.6783
v  -0.9000 2.5217 0.6783
v  -0.7937 2.4816 0.7991
v  -0.9000 2.4816 0.7991
v  -0.7937 2.4724 0.9133
v  -0.9000 2.4724 0.9133
v  -0.7937 2.4770 1.0422
v  -0.9000 2.4770 1.0422
v  -0.7937 2.4905 1.1756
v  -0.9000 2.4905 1.1756
v  -0.7937 2.5081 1.3034
v  -0.9000 2.5081 1.3034
v  -0.7937 2.5250 1.4156
v  -0.9000 2.5250 1.4156
v  -0.7937 2.5363 1.5022
v  -0.9000 2.5363 1.5022
v  -0.7937 2.5372 1.5530
v  -0.9000 2.5372 1.5530
v  -0.7937 2.5305 1.6268
v  -0.9000 2.5305 1.6268
v  -0.7937 2.5109 1.7688
v  -0.9000 2.5109 1.7688
v  -0.7937 2.4612 1.9493
v  -0.9000 2.4612 1.9493
v  -0.7937 2.3642 2.1383
v  -0.9000 2.3642 2.1383
v  -0.7937 2.2028 2.3061
v  -0.9000 2.2028 2.3061
v  -0.7937 1.9598 2.4228
v  -0.9000 1.9598 2.4228
v  -0.7937 1.6181 2.4584
v  -0.9000 1.6181 2.4584
v  -0.7937 -2.7840 2.4652
v  -0.9000 -2.7840 2.4652
v  -0.7937 -2.7761 -2.3784
v  -0.9000 -2.7761 -2.3784
v  -0.7937 -2.5380 -2.4125
v  -0.9000 -2.5380 -2.4125
v  -0.7937 -2.3031 -2.4416
v  -0.9000 -2.3031 -2.4416
v  -0.7937 -2.0756 -2.4608
v  -0.9000 -2.0756 -2.4608
v  -0.7937 -1.8593 -2.4652
v  -0.9000 -1.8593 -2.4652
v  -0.7937 -1.6582 -2.4499
v  -0.9000 -1.6582 -2.4499
v  -0.7937 -1.4763 -2.4100
v  -0.9000 -1.4763 -2.4100
v  -0.7937 -1.3175 -2.3406
v  -0.9000 -1.3175 -2.3406
v  -0.7937 -1.2030 -2.2461
v  -0.9000 -1.2030 -2.2461
v  -0.7937 -1.1140 -2.1471
v  -0.9000 -1.1140 -2.1471
v  -0.7937 -0.9945 -2.0627
v  -0.9000 -0.9945 -2.0627
v  -0.7937 -0.7886 -2.0123
v  -0.9000 -0.7886 -2.0123
v  -0.7937 -0.4404 -2.0151
v  -0.9000 -0.4404 -2.0151
v  -0.7937 0.1061 -2.0902
v  -0.9000 0.1061 -2.0902
# 192 vertices

vn 1.0000 -0.0003 -0.0001
vn 0.9999 -0.0109 -0.0004
vn 0.9999 -0.0106 -0.0004
vn 1.0000 -0.0002 -0.0001
vn -0.9999 -0.0113 -0.0010
vn -1.0000 -0.0013 -0.0012
vn -1.0000 -0.0016 -0.0012
vn -0.9999 -0.0114 -0.0010
vn 1.0000 0.0000 -0.0004
vn 1.0000 0.0000 -0.0003
vn 0.0033 -1.0000 -0.0006
vn 0.0033 -1.0000 -0.0000
vn 0.0033 -1.0000 -0.0001
vn -1.0000 0.0001 -0.0026
vn -1.0000 -0.0000 -0.0068
vn -1.0000 0.0001 -0.0025
vn -0.9989 -0.0002 -0.0471
vn -0.9999 0.0011 0.0103
vn -1.0000 0.0011 0.0088
vn -0.9989 -0.0002 -0.0479
vn 0.0001 -1.0000 0.0001
vn 0.0001 -1.0000 0.0015
vn 0.0001 -1.0000 0.0014
vn 1.0000 0.0000 0.0094
vn 1.0000 0.0004 -0.0091
vn 1.0000 0.0004 -0.0089
vn 1.0000 0.0000 0.0096
vn -0.0002 0.7073 0.7069
vn 0.0004 0.7068 -0.7074
vn 0.0005 0.7068 -0.7075
vn -0.0002 0.7068 0.7075
vn 0.0005 0.0002 1.0000
vn 0.0004 0.0001 1.0000
vn -0.0005 -0.0005 -1.0000
vn -0.0002 -0.0007 -1.0000
vn -0.0002 -0.7069 0.7073
vn 0.0003 -0.7071 0.7071
vn -0.0002 -0.7071 -0.7071
vn -0.0002 -0.7068 -0.7074
vn -0.0003 -0.0000 -1.0000
vn 0.0017 -0.0003 1.0000
vn 0.0025 -0.0007 1.0000
vn 0.0000 0.1821 -0.9833
vn 0.0000 0.1550 -0.9879
vn 0.0000 0.2644 -0.9644
vn 0.0000 0.4010 -0.9161
vn 0.0000 0.5766 -0.8170
vn 0.0000 0.7523 -0.6588
vn 0.0000 0.8851 -0.4654
vn 0.0000 0.9593 -0.2823
vn 0.0000 0.9931 -0.1169
vn 0.0000 0.9988 0.0491
vn 0.0000 0.9789 0.2042
vn 0.0000 0.9453 0.3261
vn 0.0000 0.9197 0.3927
vn 0.0000 0.9319 0.3627
vn 0.0000 0.9800 0.1992
vn 0.0000 0.9997 0.0227
vn 0.0000 0.9977 -0.0681
vn 0.0000 0.9929 -0.1188
vn 0.0000 0.9898 -0.1427
vn 0.0000 0.9903 -0.1392
vn 0.0000 0.9973 -0.0736
vn 0.0000 0.9993 0.0366
vn 0.0000 0.9935 0.1136
vn 0.0000 0.9795 0.2016
vn 0.0000 0.9319 0.3628
vn 0.0000 0.8139 0.5810
vn 0.0000 0.5860 0.8103
vn 0.0000 0.2722 0.9622
vn 0.0000 0.0527 0.9986
vn 0.0000 0.0016 1.0000
vn 0.0000 -1.0000 -0.0016
vn 0.0000 -0.1324 -0.9912
vn 0.0000 -0.1417 -0.9899
vn 0.0000 -0.1036 -0.9946
vn 0.0000 -0.0523 -0.9986
vn 0.0000 0.0277 -0.9996
vn 0.0000 0.1454 -0.9894
vn 0.0000 0.3089 -0.9511
vn 0.0000 0.5236 -0.8520
vn 0.0000 0.6920 -0.7219
vn 0.0000 0.6643 -0.7474
vn 0.0000 0.4145 -0.9100
vn 0.0000 0.1159 -0.9933
vn 0.0000 -0.0721 -0.9974
vn 0.0000 -0.1701 -0.9854
vn 0.0000 -0.2038 -0.9790
vn 1.0000 0.0000 -0.0000
vn 1.0000 0.0000 0.0000
vn 1.0000 -0.0000 0.0000
vn 1.0000 -0.0000 -0.0000
vn -1.0000 0.0000 0.0000
vn -1.0000 0.0001 0.0000
vn -1.0000 -0.0000 0.0000
vn -1.0000 -0.0000 -0.0000
vn -1.0000 0.0000 -0.0000
vn 0.0000 0.9929 -0.1187
# 98 vertex normals

vt 0.9729 0.6000 1.3909
vt 0.9777 0.9334 0.5010
vt 1.4237 0.7576 0.4463
vt 0.6683 0.0066 1.4450
vt 0.8718 0.9308 0.5007
vt 0.8765 0.6000 1.3912
vt 0.6661 0.2024 1.4451
vt 0.6529 1.3475 0.4456
vt 0.9777 0.9334 1.3909
vt 0.9952 0.0066 1.4450
vt 0.8718 0.9308 1.3912
vt 0.9990 0.2035 1.4456
vt 0.0203 0.0003 0.0000
vt 1.0000 0.0003 0.0000
vt 1.0000 0.0000 0.0000
vt 0.0002 0.0002 0.0000
vt 0.6759 3.3882 0.5020
vt 1.6494 1.3478 0.4482
vt 1.4466 2.8009 0.4994
vt 2.4200 0.7577 0.4476
vt 0.3479 0.2020 0.0000
vt 0.6620 0.2019 0.0000
vt 0.6622 0.0033 0.0000
vt 0.3479 0.0028 0.0000
vt 0.3486 0.1985 0.0000
vt 0.0000 0.1980 0.0000
vt 0.0000 0.0041 0.0000
vt 0.3484 0.0024 0.0000
vt 0.8273 0.4380 0.0000
vt 0.8273 0.9130 0.0000
vt 0.6914 0.9170 0.0000
vt 0.6942 0.4334 0.0000
vt 0.5235 0.5023 1.5000
vt 0.1339 0.9484 0.5000
vt 0.1593 0.9555 0.5000
vt 0.5186 0.5387 1.5000
vt 0.5300 0.4668 1.5000
vt 0.1090 0.9390 0.5000
vt 0.5396 0.4331 1.5000
vt 0.0855 0.9249 0.5000
vt 0.5541 0.4021 1.5000
vt 0.0638 0.9039 0.5000
vt 0.5749 0.3747 1.5000
vt 0.0446 0.8735 0.5000
vt 0.6038 0.3517 1.5000
vt 0.0285 0.8315 0.5000
vt 0.6422 0.3341 1.5000
vt 0.0162 0.7756 0.5000
vt 0.6828 0.3244 1.5000
vt 0.0094 0.7164 0.5000
vt 0.7175 0.3230 1.5000
vt 0.0084 0.6659 0.5000
vt 0.7467 0.3276 1.5000
vt 0.0116 0.6235 0.5000
vt 0.7708 0.3357 1.5000
vt 0.0173 0.5883 0.5000
vt 0.7904 0.3450 1.5000
vt 0.0238 0.5598 0.5000
vt 0.8058 0.3532 1.5000
vt 0.0295 0.5373 0.5000
vt 0.8176 0.3578 1.5000
vt 0.0327 0.5201 0.5000
vt 0.8288 0.3588 1.5000
vt 0.0335 0.5038 0.5000
vt 0.8414 0.3583 1.5000
vt 0.0331 0.4855 0.5000
vt 0.8545 0.3568 1.5000
vt 0.0320 0.4665 0.5000
vt 0.8670 0.3547 1.5000
vt 0.0306 0.4483 0.5000
vt 0.8780 0.3528 1.5000
vt 0.0292 0.4323 0.5000
vt 0.8864 0.3515 1.5000
vt 0.0283 0.4200 0.5000
vt 0.8914 0.3514 1.5000
vt 0.0283 0.4127 0.5000
vt 0.8986 0.3522 1.5000
vt 0.0288 0.4022 0.5000
vt 0.9125 0.3544 1.5000
vt 0.0304 0.3820 0.5000
vt 0.9302 0.3601 1.5000
vt 0.0344 0.3563 0.5000
vt 0.9487 0.3713 1.5000
vt 0.0422 0.3293 0.5000
vt 0.9651 0.3898 1.5000
vt 0.0551 0.3054 0.5000
vt 0.9765 0.4177 1.5000
vt 0.0747 0.2888 0.5000
vt 0.9800 0.4570 1.5000
vt 0.1022 0.2837 0.5000
vt 0.9807 0.9626 1.5000
vt 0.4560 0.2828 0.5000
vt 0.5067 0.9617 1.5000
vt 0.4554 0.9728 0.5000
vt 0.5034 0.9344 1.5000
vt 0.4362 0.9776 0.5000
vt 0.5006 0.9074 1.5000
vt 0.4174 0.9818 0.5000
vt 0.4987 0.8813 1.5000
vt 0.3991 0.9845 0.5000
vt 0.4983 0.8564 1.5000
vt 0.3817 0.9851 0.5000
vt 0.4997 0.8333 1.5000
vt 0.3655 0.9830 0.5000
vt 0.5037 0.8124 1.5000
vt 0.3509 0.9773 0.5000
vt 0.5104 0.7942 1.5000
vt 0.3381 0.9674 0.5000
vt 0.5197 0.7810 1.5000
vt 0.3289 0.9539 0.5000
vt 0.5294 0.7708 1.5000
vt 0.3218 0.9398 0.5000
vt 0.5376 0.7571 1.5000
vt 0.3122 0.9278 0.5000
vt 0.5426 0.7334 1.5000
vt 0.2956 0.9206 0.5000
vt 0.5423 0.6934 1.5000
vt 0.2676 0.9210 0.5000
vt 0.5349 0.6307 1.5000
vt 0.2237 0.9317 0.5000
# 120 texture coords

g bu2
usemtl Material__58
s 4
f 1/1/1 2/2/2 3/3/3 4/4/4 
f 5/5/5 6/6/6 7/7/7 8/8/8 
s 1
f 9/9/9 1/1/10 4/4/10 10/10/9 
s 4
f 11/11/11 9/9/12 10/10/13 12/12/11 
s 2
f 6/13/14 11/14/15 12/15/15 7/16/16 
s 1
f 13/17/17 5/5/18 8/8/19 14/18/20 
s 4
f 15/19/21 13/17/22 14/18/23 16/20/21 
s 2
f 2/2/24 15/19/25 16/20/26 3/3/27 
s 16
f 4/21/28 3/22/29 8/23/30 7/24/31 
f 7/7/31 12/12/32 10/10/33 4/4/28 
f 3/25/29 16/26/34 14/27/35 8/28/30 
f 5/5/36 2/2/37 1/1/38 6/6/39 
f 9/9/40 11/11/40 6/6/39 1/1/38 
f 13/29/41 15/30/42 2/31/37 5/32/36 
usemtl Material__74
s 1
f 17/33/43 18/34/43 19/35/44 20/36/44 
s 3
f 21/37/45 22/38/45 18/34/43 17/33/43 
s 2
f 23/39/46 24/40/46 22/38/45 21/37/45 
f 25/41/47 26/42/47 24/40/46 23/39/46 
f 27/43/48 28/44/48 26/42/47 25/41/47 
f 29/45/49 30/46/49 28/44/48 27/43/48 
f 31/47/50 32/48/50 30/46/49 29/45/49 
f 33/49/51 34/50/51 32/48/50 31/47/50 
f 35/51/52 36/52/52 34/50/51 33/49/51 
f 37/53/53 38/54/53 36/52/52 35/51/52 
f 39/55/54 40/56/54 38/54/53 37/53/53 
f 41/57/55 42/58/55 40/56/54 39/55/54 
f 43/59/56 44/60/56 42/58/55 41/57/55 
f 45/61/57 46/62/57 44/60/56 43/59/56 
f 47/63/58 48/64/58 46/62/57 45/61/57 
f 49/65/59 50/66/59 48/64/58 47/63/58 
f 51/67/60 52/68/60 50/66/59 49/65/59 
f 53/69/61 54/70/61 52/68/60 51/67/60 
f 55/71/62 56/72/62 54/70/61 53/69/61 
f 57/73/63 58/74/63 56/72/62 55/71/62 
f 59/75/64 60/76/64 58/74/63 57/73/63 
f 61/77/65 62/78/65 60/76/64 59/75/64 
f 63/79/66 64/80/66 62/78/65 61/77/65 
f 65/81/67 66/82/67 64/80/66 63/79/66 
f 67/83/68 68/84/68 66/82/67 65/81/67 
f 69/85/69 70/86/69 68/84/68 67/83/68 
f 71/87/70 72/88/70 70/86/69 69/85/69 
f 73/89/71 74/90/71 72/88/70 71/87/70 
f 75/91/72 76/92/72 74/90/71 73/89/71 
s 4
f 77/93/73 78/94/73 76/92/73 75/91/73 
s 2
f 79/95/74 80/96/74 78/94/75 77/93/75 
f 81/97/76 82/98/76 80/96/74 79/95/74 
f 83/99/77 84/100/77 82/98/76 81/97/76 
f 85/101/78 86/102/78 84/100/77 83/99/77 
f 87/103/79 88/104/79 86/102/78 85/101/78 
f 89/105/80 90/106/80 88/104/79 87/103/79 
f 91/107/81 92/108/81 90/106/80 89/105/80 
f 93/109/82 94/110/82 92/108/81 91/107/81 
f 95/111/83 96/112/83 94/110/82 93/109/82 
f 97/113/84 98/114/84 96/112/83 95/111/83 
f 99/115/85 100/116/85 98/114/84 97/113/84 
f 101/117/86 102/118/86 100/116/85 99/115/85 
f 103/119/87 104/120/87 102/118/86 101/117/86 
f 20/36/88 19/35/88 104/120/87 103/119/87 
s 16
f 74/90/89 76/92/90 78/94/90 80/96/90 
f 74/90/89 80/96/90 82/98/89 84/100/89 
f 74/90/89 84/100/89 86/102/89 88/104/91 
f 74/90/89 88/104/91 90/106/91 92/108/89 
f 74/90/89 92/108/89 94/110/91 96/112/91 
f 74/90/89 96/112/91 98/114/91 100/116/89 
f 74/90/89 100/116/89 102/118/89 104/120/91 
f 74/90/89 104/120/91 19/35/90 18/34/89 
f 74/90/89 18/34/89 22/38/89 24/40/90 
f 74/90/89 24/40/90 26/42/89 28/44/92 
f 74/90/89 28/44/92 30/46/90 32/48/89 
f 74/90/89 32/48/89 34/50/89 36/52/92 
f 74/90/89 36/52/92 38/54/92 40/56/90 
f 74/90/89 40/56/90 42/58/90 44/60/90 
f 74/90/89 44/60/90 46/62/92 48/64/90 
f 74/90/89 48/64/90 50/66/90 52/68/89 
f 74/90/89 52/68/89 54/70/89 56/72/89 
f 58/74/89 60/76/89 62/78/89 56/72/89 
f 56/72/89 62/78/89 64/80/90 66/82/92 
f 56/72/89 66/82/92 68/84/92 70/86/92 
f 56/72/89 70/86/92 72/88/92 74/90/89 
f 61/77/93 59/75/94 57/73/95 55/71/96 
f 63/79/93 61/77/93 55/71/96 65/81/93 
f 67/83/93 65/81/93 55/71/96 69/85/96 
f 71/87/93 69/85/96 55/71/96 73/89/93 
f 73/89/93 55/71/96 53/69/93 51/67/93 
f 73/89/93 51/67/93 49/65/96 47/63/96 
f 73/89/93 47/63/96 45/61/93 43/59/93 
f 73/89/93 43/59/93 41/57/93 39/55/96 
f 73/89/93 39/55/96 37/53/93 35/51/96 
f 73/89/93 35/51/96 33/49/97 31/47/93 
f 73/89/93 31/47/93 29/45/93 27/43/97 
f 73/89/93 27/43/97 25/41/96 23/39/97 
f 73/89/93 23/39/97 21/37/96 17/33/97 
f 73/89/93 17/33/97 20/36/97 103/119/96 
f 73/89/93 103/119/96 101/117/96 99/115/95 
f 73/89/93 99/115/95 97/113/95 95/111/97 
f 73/89/93 95/111/97 93/109/97 91/107/97 
f 73/89/93 91/107/97 89/105/95 87/103/95 
f 73/89/93 87/103/95 85/101/97 83/99/96 
f 73/89/93 83/99/96 81/97/96 79/95/96 
f 73/89/93 79/95/96 77/93/96 75/91/96 
s 1
f 105/33/43 106/36/44 107/35/44 108/34/43 
s 3
f 109/37/45 105/33/43 108/34/43 110/38/45 
s 2
f 111/39/46 109/37/45 110/38/45 112/40/46 
f 113/41/47 111/39/46 112/40/46 114/42/47 
f 115/43/48 113/41/47 114/42/47 116/44/48 
f 117/45/49 115/43/48 116/44/48 118/46/49 
f 119/47/50 117/45/49 118/46/49 120/48/50 
f 121/49/51 119/47/50 120/48/50 122/50/51 
f 123/51/52 121/49/51 122/50/51 124/52/52 
f 125/53/53 123/51/52 124/52/52 126/54/53 
f 127/55/54 125/53/53 126/54/53 128/56/54 
f 129/57/55 127/55/54 128/56/54 130/58/55 
f 131/59/56 129/57/55 130/58/55 132/60/56 
f 133/61/57 131/59/56 132/60/56 134/62/57 
f 135/63/58 133/61/57 134/62/57 136/64/58 
f 137/65/59 135/63/58 136/64/58 138/66/59 
f 139/67/98 137/65/59 138/66/59 140/68/98 
f 141/69/61 139/67/98 140/68/98 142/70/61 
f 143/71/62 141/69/61 142/70/61 144/72/62 
f 145/73/63 143/71/62 144/72/62 146/74/63 
f 147/75/64 145/73/63 146/74/63 148/76/64 
f 149/77/65 147/75/64 148/76/64 150/78/65 
f 151/79/66 149/77/65 150/78/65 152/80/66 
f 153/81/67 151/79/66 152/80/66 154/82/67 
f 155/83/68 153/81/67 154/82/67 156/84/68 
f 157/85/69 155/83/68 156/84/68 158/86/69 
f 159/87/70 157/85/69 158/86/69 160/88/70 
f 161/89/71 159/87/70 160/88/70 162/90/71 
f 163/91/72 161/89/71 162/90/71 164/92/72 
s 4
f 165/93/73 163/91/73 164/92/73 166/94/73 
s 2
f 167/95/74 165/93/75 166/94/75 168/96/74 
f 169/97/76 167/95/74 168/96/74 170/98/76 
f 171/99/77 169/97/76 170/98/76 172/100/77 
f 173/101/78 171/99/77 172/100/77 174/102/78 
f 175/103/79 173/101/78 174/102/78 176/104/79 
f 177/105/80 175/103/79 176/104/79 178/106/80 
f 179/107/81 177/105/80 178/106/80 180/108/81 
f 181/109/82 179/107/81 180/108/81 182/110/82 
f 183/111/83 181/109/82 182/110/82 184/112/83 
f 185/113/84 183/111/83 184/112/83 186/114/84 
f 187/115/85 185/113/84 186/114/84 188/116/85 
f 189/117/86 187/115/85 188/116/85 190/118/86 
f 191/119/87 189/117/86 190/118/86 192/120/87 
f 106/36/88 191/119/87 192/120/87 107/35/88 
s 16
f 150/78/96 148/76/97 146/74/97 144/72/97 
f 152/80/97 150/78/96 144/72/97 154/82/97 
f 156/84/97 154/82/97 144/72/97 158/86/97 
f 160/88/97 158/86/97 144/72/97 162/90/97 
f 162/90/97 144/72/97 142/70/97 140/68/97 
f 162/90/97 140/68/97 138/66/97 136/64/97 
f 162/90/97 136/64/97 134/62/96 132/60/93 
f 162/90/97 132/60/93 130/58/93 128/56/96 
f 162/90/97 128/56/96 126/54/97 124/52/96 
f 162/90/97 124/52/96 122/50/97 120/48/97 
f 162/90/97 120/48/97 118/46/97 116/44/97 
f 162/90/97 116/44/97 114/42/96 112/40/97 
f 162/90/97 112/40/97 110/38/97 108/34/97 
f 162/90/97 108/34/97 107/35/97 192/120/97 
f 162/90/97 192/120/97 190/118/97 188/116/96 
f 162/90/97 188/116/96 186/114/97 184/112/95 
f 162/90/97 184/112/95 182/110/97 180/108/97 
f 162/90/97 180/108/97 178/106/97 176/104/97 
f 162/90/97 176/104/97 174/102/97 172/100/97 
f 162/90/97 172/100/97 170/98/97 168/96/96 
f 162/90/97 168/96/96 166/94/97 164/92/97 
f 161/89/91 163/91/91 165/93/91 167/95/90 
f 161/89/91 167/95/90 169/97/91 171/99/91 
f 161/89/91 171/99/91 173/101/91 175/103/91 
f 161/89/91 175/103/91 177/105/91 179/107/91 
f 161/89/91 179/107/91 181/109/91 183/111/91 
f 161/89/91 183/111/91 185/113/89 187/115/90 
f 161/89/91 187/115/90 189/117/91 191/119/91 
f 161/89/91 191/119/91 106/36/91 105/33/91 
f 161/89/91 105/33/91 109/37/91 111/39/91 
f 161/89/91 111/39/91 113/41/90 115/43/91 
f 161/89/91 115/43/91 117/45/91 119/47/91 
f 161/89/91 119/47/91 121/49/91 123/51/91 
f 161/89/91 123/51/91 125/53/91 127/55/90 
f 161/89/91 127/55/90 129/57/90 131/59/92 
f 161/89/91 131/59/92 133/61/90 135/63/91 
f 161/89/91 135/63/91 137/65/91 139/67/91 
f 161/89/91 139/67/91 141/69/91 143/71/91 
f 145/73/91 147/75/91 149/77/90 143/71/91 
f 143/71/91 149/77/90 151/79/90 153/81/91 
f 143/71/91 153/81/91 155/83/91 157/85/91 
f 143/71/91 157/85/91 159/87/91 161/89/91 
# 186 polygons

