# 3ds Max Wavefront OBJ Exporter v0.97b - (c)2007 guruware
# File Created: 24.01.2016 02:04:49

mtllib bu3.mtl

#
# object bu3
#

v  0.7988 1.1574 3.1051
v  0.7975 1.1575 -2.6068
v  0.7983 1.2321 -2.6890
v  0.7988 1.2335 3.1865
v  -0.7944 1.1574 -2.6073
v  -0.7988 1.1574 3.1055
v  -0.7990 1.2326 3.1866
v  -0.7952 1.2323 -2.6901
v  0.7988 -2.5135 3.1051
v  0.7989 -2.5135 3.1865
v  -0.7988 -2.5188 3.1056
v  -0.7993 -2.5188 3.1873
v  -0.7985 -2.5181 -2.6053
v  -0.7946 -2.5182 -2.6862
v  0.7991 -2.5180 -2.6092
v  0.7984 -2.5180 -2.6870
v  0.7937 -2.5159 -3.9270
v  0.9000 -2.5159 -3.9270
v  0.9000 -2.5328 3.9737
v  0.7937 -2.5328 3.9737
v  0.7937 0.5540 -3.9737
v  0.9000 0.5540 -3.9737
v  0.7937 0.8879 -3.9433
v  0.9000 0.8879 -3.9433
v  0.7937 1.2148 -3.8774
v  0.9000 1.2148 -3.8774
v  0.7937 1.5276 -3.7406
v  0.9000 1.5276 -3.7406
v  0.7937 1.8191 -3.4975
v  0.9000 1.8191 -3.4975
v  0.7937 2.0824 -3.1125
v  0.9000 2.0824 -3.1125
v  0.7937 2.3105 -2.5502
v  0.9000 2.3105 -2.5502
v  0.7937 2.4961 -1.7751
v  0.9000 2.4961 -1.7751
v  0.7937 2.5095 -1.6908
v  0.9000 2.5095 -1.6908
v  0.7937 2.5213 -1.5996
v  0.9000 2.5213 -1.5996
v  0.7937 2.5296 -1.4947
v  0.9000 2.5296 -1.4947
v  0.7937 2.5328 -1.3690
v  0.9000 2.5328 -1.3690
v  0.7937 2.5292 -1.2159
v  0.9000 2.5292 -1.2159
v  0.7937 2.5171 -1.0282
v  0.9000 2.5171 -1.0282
v  0.7937 2.4948 -0.7993
v  0.9000 2.4948 -0.7993
v  0.7937 2.4606 -0.5938
v  0.9000 2.4606 -0.5938
v  0.7937 2.4199 -0.4572
v  0.9000 2.4199 -0.4572
v  0.7937 2.3823 -0.3536
v  0.9000 2.3823 -0.3536
v  0.7937 2.3569 -0.2473
v  0.9000 2.3569 -0.2473
v  0.7937 2.3530 -0.1023
v  0.9000 2.3530 -0.1023
v  0.7937 2.3800 0.1170
v  0.9000 2.3800 0.1170
v  0.7937 2.4472 0.4467
v  0.9000 2.4472 0.4467
v  0.7937 2.5001 0.8061
v  0.9000 2.5001 0.8061
v  0.7937 2.4909 1.0974
v  0.9000 2.4909 1.0974
v  0.7937 2.4388 1.3301
v  0.9000 2.4388 1.3301
v  0.7937 2.3632 1.5137
v  0.9000 2.3632 1.5137
v  0.7937 2.2832 1.6578
v  0.9000 2.2832 1.6578
v  0.7937 2.2182 1.7720
v  0.9000 2.2182 1.7720
v  0.7937 2.1874 1.8657
v  0.9000 2.1874 1.8657
v  0.7937 2.1857 1.9589
v  0.9000 2.1857 1.9589
v  0.7937 2.1940 2.0637
v  0.9000 2.1940 2.0637
v  0.7937 2.2108 2.1782
v  0.9000 2.2108 2.1782
v  0.7937 2.2342 2.3005
v  0.9000 2.2342 2.3005
v  0.7937 2.2627 2.4286
v  0.9000 2.2627 2.4286
v  0.7937 2.2945 2.5606
v  0.9000 2.2945 2.5606
v  0.7937 2.3280 2.6945
v  0.9000 2.3280 2.6945
v  0.7937 2.4203 3.0697
v  0.9000 2.4203 3.0697
v  0.7937 2.3954 3.2519
v  0.9000 2.3954 3.2519
v  0.7937 2.3577 3.4257
v  0.9000 2.3577 3.4257
v  0.7937 2.2948 3.5828
v  0.9000 2.2948 3.5828
v  0.7937 2.1939 3.7150
v  0.9000 2.1939 3.7150
v  0.7937 2.0424 3.8137
v  0.9000 2.0424 3.8137
v  0.7937 1.8276 3.8708
v  0.9000 1.8276 3.8708
v  0.7937 1.5368 3.8778
v  0.9000 1.5368 3.8778
v  0.7937 1.2445 3.8639
v  0.9000 1.2445 3.8639
v  0.7937 1.0252 3.8624
v  0.9000 1.0252 3.8624
v  0.7937 0.8668 3.8713
v  0.9000 0.8668 3.8713
v  0.7937 0.7570 3.8884
v  0.9000 0.7570 3.8884
v  0.7937 0.6839 3.9118
v  0.9000 0.6839 3.9118
v  0.7937 0.6350 3.9393
v  0.9000 0.6350 3.9393
v  0.7937 0.5983 3.9689
v  0.9000 0.5983 3.9689
v  -0.7937 -2.5159 -3.9270
v  -0.7937 -2.5328 3.9737
v  -0.9000 -2.5328 3.9737
v  -0.9000 -2.5159 -3.9270
v  -0.7937 0.5540 -3.9737
v  -0.9000 0.5540 -3.9737
v  -0.7937 0.8879 -3.9433
v  -0.9000 0.8879 -3.9433
v  -0.7937 1.2148 -3.8774
v  -0.9000 1.2148 -3.8774
v  -0.7937 1.5276 -3.7406
v  -0.9000 1.5276 -3.7406
v  -0.7937 1.8191 -3.4975
v  -0.9000 1.8191 -3.4975
v  -0.7937 2.0824 -3.1125
v  -0.9000 2.0824 -3.1125
v  -0.7937 2.3105 -2.5502
v  -0.9000 2.3105 -2.5502
v  -0.7937 2.4961 -1.7751
v  -0.9000 2.4961 -1.7751
v  -0.7937 2.5095 -1.6908
v  -0.9000 2.5095 -1.6908
v  -0.7937 2.5213 -1.5996
v  -0.9000 2.5213 -1.5996
v  -0.7937 2.5296 -1.4947
v  -0.9000 2.5296 -1.4947
v  -0.7937 2.5328 -1.3690
v  -0.9000 2.5328 -1.3690
v  -0.7937 2.5292 -1.2159
v  -0.9000 2.5292 -1.2159
v  -0.7937 2.5171 -1.0282
v  -0.9000 2.5171 -1.0282
v  -0.7937 2.4948 -0.7993
v  -0.9000 2.4948 -0.7993
v  -0.7937 2.4606 -0.5938
v  -0.9000 2.4606 -0.5938
v  -0.7937 2.4199 -0.4572
v  -0.9000 2.4199 -0.4572
v  -0.7937 2.3823 -0.3536
v  -0.9000 2.3823 -0.3536
v  -0.7937 2.3569 -0.2473
v  -0.9000 2.3569 -0.2473
v  -0.7937 2.3530 -0.1023
v  -0.9000 2.3530 -0.1023
v  -0.7937 2.3800 0.1170
v  -0.9000 2.3800 0.1170
v  -0.7937 2.4472 0.4467
v  -0.9000 2.4472 0.4467
v  -0.7937 2.5001 0.8061
v  -0.9000 2.5001 0.8061
v  -0.7937 2.4909 1.0974
v  -0.9000 2.4909 1.0974
v  -0.7937 2.4388 1.3301
v  -0.9000 2.4388 1.3301
v  -0.7937 2.3632 1.5137
v  -0.9000 2.3632 1.5137
v  -0.7937 2.2832 1.6578
v  -0.9000 2.2832 1.6578
v  -0.7937 2.2182 1.7720
v  -0.9000 2.2182 1.7720
v  -0.7937 2.1874 1.8657
v  -0.9000 2.1874 1.8657
v  -0.7937 2.1857 1.9589
v  -0.9000 2.1857 1.9589
v  -0.7937 2.1940 2.0637
v  -0.9000 2.1940 2.0637
v  -0.7937 2.2108 2.1782
v  -0.9000 2.2108 2.1782
v  -0.7937 2.2342 2.3005
v  -0.9000 2.2342 2.3005
v  -0.7937 2.2627 2.4286
v  -0.9000 2.2627 2.4286
v  -0.7937 2.2945 2.5606
v  -0.9000 2.2945 2.5606
v  -0.7937 2.3280 2.6945
v  -0.9000 2.3280 2.6945
v  -0.7937 2.4203 3.0697
v  -0.9000 2.4203 3.0697
v  -0.7937 2.3954 3.2519
v  -0.9000 2.3954 3.2519
v  -0.7937 2.3577 3.4257
v  -0.9000 2.3577 3.4257
v  -0.7937 2.2948 3.5828
v  -0.9000 2.2948 3.5828
v  -0.7937 2.1939 3.7150
v  -0.9000 2.1939 3.7150
v  -0.7937 2.0424 3.8137
v  -0.9000 2.0424 3.8137
v  -0.7937 1.8276 3.8708
v  -0.9000 1.8276 3.8708
v  -0.7937 1.5368 3.8778
v  -0.9000 1.5368 3.8778
v  -0.7937 1.2445 3.8639
v  -0.9000 1.2445 3.8639
v  -0.7937 1.0252 3.8624
v  -0.9000 1.0252 3.8624
v  -0.7937 0.8668 3.8713
v  -0.9000 0.8668 3.8713
v  -0.7937 0.7570 3.8884
v  -0.9000 0.7570 3.8884
v  -0.7937 0.6839 3.9118
v  -0.9000 0.6839 3.9118
v  -0.7937 0.6350 3.9393
v  -0.9000 0.6350 3.9393
v  -0.7937 0.5983 3.9689
v  -0.9000 0.5983 3.9689
# 228 vertices

vn 1.0000 -0.0003 -0.0001
vn 0.9999 -0.0108 -0.0002
vn 0.9999 -0.0106 -0.0002
vn -0.9999 -0.0109 -0.0007
vn -1.0000 -0.0018 -0.0008
vn -1.0000 -0.0020 -0.0008
vn -0.9999 -0.0110 -0.0007
vn 1.0000 0.0000 -0.0004
vn 1.0000 0.0000 -0.0003
vn 0.0033 -1.0000 -0.0006
vn 0.0033 -1.0000 -0.0000
vn 0.0033 -1.0000 -0.0001
vn -1.0000 0.0001 -0.0026
vn -1.0000 -0.0000 -0.0068
vn -1.0000 0.0001 -0.0025
vn -0.9989 -0.0002 -0.0471
vn -0.9999 0.0011 0.0103
vn -1.0000 0.0011 0.0088
vn -0.9989 -0.0002 -0.0479
vn 0.0001 -1.0000 0.0001
vn 0.0001 -1.0000 0.0015
vn 0.0001 -1.0000 0.0014
vn 1.0000 0.0000 0.0094
vn 1.0000 0.0004 -0.0091
vn 1.0000 0.0004 -0.0089
vn 1.0000 0.0000 0.0096
vn -0.0002 0.7073 0.7069
vn 0.0004 0.7069 -0.7074
vn 0.0005 0.7067 -0.7075
vn -0.0002 0.7068 0.7074
vn 0.0005 0.0002 1.0000
vn 0.0004 0.0001 1.0000
vn -0.0005 -0.0005 -1.0000
vn -0.0002 -0.0007 -1.0000
vn -0.0002 -0.7068 0.7074
vn 0.0003 -0.7071 0.7072
vn -0.0002 -0.7071 -0.7071
vn -0.0002 -0.7069 -0.7073
vn -0.0003 -0.0000 -1.0000
vn 0.0017 -0.0003 1.0000
vn 0.0025 -0.0007 1.0000
vn 0.0000 -1.0000 -0.0021
vn 0.0000 -0.0152 -0.9999
vn 0.0000 0.1444 -0.9895
vn 0.0000 0.0907 -0.9959
vn 0.0000 0.3009 -0.9537
vn 0.0000 0.5259 -0.8506
vn 0.0000 0.7400 -0.6726
vn 0.0000 0.8811 -0.4729
vn 0.0000 0.9523 -0.3052
vn 0.0000 0.9725 -0.2329
vn 0.0000 0.9898 -0.1424
vn 0.0000 0.9876 -0.1573
vn 0.0000 0.9946 -0.1033
vn 0.0000 0.9986 -0.0523
vn 0.0000 1.0000 -0.0011
vn 0.0000 0.9990 0.0439
vn 0.0000 0.9967 0.0807
vn 0.0000 0.9914 0.1308
vn -0.0000 0.9914 0.1308
vn -0.0000 0.9743 0.2251
vn -0.0000 0.9496 0.3135
vn 0.0000 0.9496 0.3135
vn 0.0000 0.9578 0.2876
vn 0.0000 0.9915 0.1302
vn 0.0000 0.9988 -0.0480
vn 0.0000 0.9869 -0.1611
vn 0.0000 0.9850 -0.1727
vn 0.0000 0.9984 -0.0572
vn 0.0000 0.9921 0.1256
vn 0.0000 0.9537 0.3008
vn 0.0000 0.9010 0.4338
vn 0.0000 0.8717 0.4901
vn 0.0000 0.9140 0.4057
vn 0.0000 0.9859 0.1671
vn 0.0000 0.9995 -0.0307
vn 0.0000 0.9937 -0.1121
vn 0.0000 0.9860 -0.1665
vn 0.0000 0.9793 -0.2026
vn 0.0000 0.9742 -0.2256
vn 0.0000 0.9711 -0.2385
vn 0.0000 0.9701 -0.2426
vn 0.0000 0.9710 -0.2389
vn 0.0000 0.9848 0.1737
vn 0.0000 0.9907 0.1357
vn 0.0000 0.9562 0.2926
vn 0.0000 0.8695 0.4939
vn 0.0000 0.6802 0.7330
vn 0.0000 0.4065 0.9137
vn 0.0000 0.1414 0.9900
vn 0.0000 -0.0117 0.9999
vn 0.0000 -0.0271 0.9996
vn 0.0000 0.0246 0.9997
vn 0.0000 0.1053 0.9944
vn 0.0000 0.2299 0.9732
vn 0.0000 0.3993 0.9168
vn 0.0000 0.5610 0.8278
vn 0.0000 0.6277 0.7785
vn 0.0000 0.0016 1.0000
vn 1.0000 0.0000 0.0000
vn 1.0000 -0.0000 0.0000
vn 1.0000 0.0000 -0.0000
vn 1.0000 -0.0000 -0.0000
vn -1.0000 -0.0000 -0.0000
vn -1.0000 0.0000 0.0000
vn -1.0000 0.0000 -0.0000
vn 0.0000 0.9743 0.2251
vn -1.0000 -0.0000 0.0000
# 108 vertex normals

vt 0.9729 0.6000 1.3909
vt 0.9777 0.9334 0.5010
vt 1.4237 0.7576 0.4463
vt 0.7042 0.0019 1.4450
vt 0.8718 0.9308 0.5007
vt 0.8765 0.6000 1.3912
vt 0.7022 0.1391 1.4451
vt 0.6529 1.3475 0.4456
vt 0.9777 0.9334 1.3909
vt 0.9967 0.0020 1.4450
vt 0.8718 0.9308 1.3912
vt 1.0001 0.1399 1.4456
vt 0.0203 0.0003 0.0000
vt 1.0000 0.0003 0.0000
vt 1.0000 0.0000 0.0000
vt 0.0002 0.0002 0.0000
vt 0.6759 3.3882 0.5020
vt 1.6494 1.3478 0.4482
vt 1.4466 2.8009 0.4994
vt 2.4200 0.7577 0.4476
vt 0.3009 0.1399 0.0000
vt 0.7024 0.1399 0.0000
vt 0.7027 0.0032 0.0000
vt 0.3008 0.0028 0.0000
vt 0.2955 0.1388 0.0000
vt 0.0000 0.1385 0.0000
vt 0.0000 0.0036 0.0000
vt 0.2954 0.0024 0.0000
vt 0.8273 0.4380 0.0000
vt 0.8273 0.9130 0.0000
vt 0.6914 0.9170 0.0000
vt 0.6942 0.4334 0.0000
vt 0.9641 0.9670 1.5000
vt 0.3928 0.9931 0.5000
vt 0.3941 0.1930 0.5000
vt 0.9654 0.4827 1.5000
vt 0.7173 0.9698 1.5000
vt 0.1570 0.9978 0.5000
vt 0.6905 0.9680 1.5000
vt 0.1313 0.9947 0.5000
vt 0.6642 0.9639 1.5000
vt 0.1062 0.9880 0.5000
vt 0.6391 0.9556 1.5000
vt 0.0822 0.9742 0.5000
vt 0.6156 0.9406 1.5000
vt 0.0598 0.9496 0.5000
vt 0.5945 0.9170 1.5000
vt 0.0396 0.9106 0.5000
vt 0.5761 0.8826 1.5000
vt 0.0221 0.8536 0.5000
vt 0.5612 0.8351 1.5000
vt 0.0078 0.7752 0.5000
vt 0.5601 0.8299 1.5000
vt 0.0068 0.7666 0.5000
vt 0.5592 0.8243 1.5000
vt 0.0059 0.7574 0.5000
vt 0.5585 0.8179 1.5000
vt 0.0053 0.7468 0.5000
vt 0.5583 0.8102 1.5000
vt 0.0050 0.7340 0.5000
vt 0.5586 0.8008 1.5000
vt 0.0053 0.7185 0.5000
vt 0.5595 0.7893 1.5000
vt 0.0062 0.6995 0.5000
vt 0.5613 0.7753 1.5000
vt 0.0079 0.6763 0.5000
vt 0.5641 0.7627 1.5000
vt 0.0106 0.6555 0.5000
vt 0.5673 0.7543 1.5000
vt 0.0137 0.6417 0.5000
vt 0.5704 0.7479 1.5000
vt 0.0166 0.6312 0.5000
vt 0.5724 0.7414 1.5000
vt 0.0185 0.6204 0.5000
vt 0.5727 0.7325 1.5000
vt 0.0188 0.6058 0.5000
vt 0.5705 0.7191 1.5000
vt 0.0167 0.5835 0.5000
vt 0.5651 0.6989 1.5000
vt 0.0116 0.5502 0.5000
vt 0.5609 0.6769 1.5000
vt 0.0075 0.5138 0.5000
vt 0.5616 0.6590 1.5000
vt 0.0082 0.4843 0.5000
vt 0.5658 0.6447 1.5000
vt 0.0122 0.4607 0.5000
vt 0.5719 0.6335 1.5000
vt 0.0180 0.4421 0.5000
vt 0.5783 0.6247 1.5000
vt 0.0242 0.4275 0.5000
vt 0.5836 0.6177 1.5000
vt 0.0292 0.4160 0.5000
vt 0.5860 0.6119 1.5000
vt 0.0315 0.4065 0.5000
vt 0.5862 0.6062 1.5000
vt 0.0317 0.3970 0.5000
vt 0.5855 0.5998 1.5000
vt 0.0310 0.3864 0.5000
vt 0.5842 0.5928 1.5000
vt 0.0297 0.3748 0.5000
vt 0.5823 0.5853 1.5000
vt 0.0279 0.3624 0.5000
vt 0.5800 0.5774 1.5000
vt 0.0258 0.3495 0.5000
vt 0.5774 0.5693 1.5000
vt 0.0233 0.3361 0.5000
vt 0.5747 0.5611 1.5000
vt 0.0207 0.3225 0.5000
vt 0.5673 0.5381 1.5000
vt 0.0136 0.2845 0.5000
vt 0.5693 0.5269 1.5000
vt 0.0156 0.2661 0.5000
vt 0.5723 0.5163 1.5000
vt 0.0185 0.2485 0.5000
vt 0.5774 0.5067 1.5000
vt 0.0233 0.2326 0.5000
vt 0.5855 0.4986 1.5000
vt 0.0310 0.2192 0.5000
vt 0.5977 0.4925 1.5000
vt 0.0427 0.2092 0.5000
vt 0.6149 0.4890 1.5000
vt 0.0592 0.2034 0.5000
vt 0.6383 0.4886 1.5000
vt 0.0815 0.2027 0.5000
vt 0.6618 0.4894 1.5000
vt 0.1040 0.2041 0.5000
vt 0.6794 0.4895 1.5000
vt 0.1208 0.2043 0.5000
vt 0.6922 0.4890 1.5000
vt 0.1330 0.2034 0.5000
vt 0.7010 0.4879 1.5000
vt 0.1414 0.2016 0.5000
vt 0.7069 0.4865 1.5000
vt 0.1470 0.1993 0.5000
vt 0.7108 0.4848 1.5000
vt 0.1508 0.1965 0.5000
vt 0.7138 0.4830 1.5000
vt 0.1536 0.1935 0.5000
# 138 texture coords

g bu3
usemtl Material__53
s 4
f 1/1/1 2/2/2 3/3/3 4/4/1 
f 5/5/4 6/6/5 7/7/6 8/8/7 
s 1
f 9/9/8 1/1/9 4/4/9 10/10/8 
s 4
f 11/11/10 9/9/11 10/10/12 12/12/10 
s 2
f 6/13/13 11/14/14 12/15/14 7/16/15 
s 1
f 13/17/16 5/5/17 8/8/18 14/18/19 
s 4
f 15/19/20 13/17/21 14/18/22 16/20/20 
s 2
f 2/2/23 15/19/24 16/20/25 3/3/26 
s 16
f 4/21/27 3/22/28 8/23/29 7/24/30 
f 7/7/30 12/12/31 10/10/32 4/4/27 
f 3/25/28 16/26/33 14/27/34 8/28/29 
f 5/5/35 2/2/36 1/1/37 6/6/38 
f 9/9/39 11/11/39 6/6/38 1/1/37 
f 13/29/40 15/30/41 2/31/36 5/32/35 
usemtl Material__67
s 1
f 17/33/42 18/34/42 19/35/42 20/36/42 
s 4
f 21/37/43 22/38/43 18/34/43 17/33/43 
s 2
f 23/39/44 24/40/44 22/38/45 21/37/45 
f 25/41/46 26/42/46 24/40/44 23/39/44 
f 27/43/47 28/44/47 26/42/46 25/41/46 
f 29/45/48 30/46/48 28/44/47 27/43/47 
f 31/47/49 32/48/49 30/46/48 29/45/48 
f 33/49/50 34/50/50 32/48/49 31/47/49 
f 35/51/51 36/52/51 34/50/50 33/49/50 
s 4
f 37/53/52 38/54/52 36/52/53 35/51/53 
f 39/55/54 40/56/54 38/54/52 37/53/52 
f 41/57/55 42/58/55 40/56/54 39/55/54 
f 43/59/56 44/60/56 42/58/55 41/57/55 
f 45/61/57 46/62/57 44/60/56 43/59/56 
f 47/63/58 48/64/58 46/62/57 45/61/57 
f 49/65/59 50/66/60 48/64/58 47/63/58 
f 51/67/61 52/68/61 50/66/60 49/65/59 
f 53/69/62 54/70/63 52/68/61 51/67/61 
f 55/71/64 56/72/64 54/70/63 53/69/62 
f 57/73/65 58/74/65 56/72/64 55/71/64 
f 59/75/66 60/76/66 58/74/65 57/73/65 
f 61/77/67 62/78/67 60/76/66 59/75/66 
f 63/79/68 64/80/68 62/78/67 61/77/67 
f 65/81/69 66/82/69 64/80/68 63/79/68 
f 67/83/70 68/84/70 66/82/69 65/81/69 
f 69/85/71 70/86/71 68/84/70 67/83/70 
f 71/87/72 72/88/72 70/86/71 69/85/71 
f 73/89/73 74/90/73 72/88/72 71/87/72 
f 75/91/74 76/92/74 74/90/73 73/89/73 
f 77/93/75 78/94/75 76/92/74 75/91/74 
f 79/95/76 80/96/76 78/94/75 77/93/75 
f 81/97/77 82/98/77 80/96/76 79/95/76 
f 83/99/78 84/100/78 82/98/77 81/97/77 
f 85/101/79 86/102/79 84/100/78 83/99/78 
f 87/103/80 88/104/80 86/102/79 85/101/79 
f 89/105/81 90/106/81 88/104/80 87/103/80 
f 91/107/82 92/108/82 90/106/81 89/105/81 
s 2
f 93/109/83 94/110/83 92/108/83 91/107/83 
s 4
f 95/111/84 96/112/84 94/110/85 93/109/85 
f 97/113/86 98/114/86 96/112/84 95/111/84 
f 99/115/87 100/116/87 98/114/86 97/113/86 
f 101/117/88 102/118/88 100/116/87 99/115/87 
f 103/119/89 104/120/89 102/118/88 101/117/88 
f 105/121/90 106/122/90 104/120/89 103/119/89 
f 107/123/91 108/124/91 106/122/90 105/121/90 
f 109/125/92 110/126/92 108/124/91 107/123/91 
f 111/127/93 112/128/93 110/126/92 109/125/92 
f 113/129/94 114/130/94 112/128/93 111/127/93 
f 115/131/95 116/132/95 114/130/94 113/129/94 
f 117/133/96 118/134/96 116/132/95 115/131/95 
f 119/135/97 120/136/97 118/134/96 117/133/96 
f 121/137/98 122/138/98 120/136/97 119/135/97 
s 2
f 20/36/99 19/35/99 122/138/99 121/137/99 
s 16
f 66/82/100 68/84/100 70/86/101 72/88/100 
f 92/108/100 94/110/100 96/112/101 108/124/100 
f 100/116/101 102/118/102 104/120/103 106/122/101 
f 98/114/101 100/116/101 106/122/101 108/124/100 
f 96/112/101 98/114/101 108/124/100 
f 92/108/100 108/124/100 110/126/100 90/106/101 
f 88/104/101 90/106/101 110/126/100 112/128/103 
f 86/102/101 88/104/101 112/128/103 114/130/101 
f 84/100/100 86/102/101 114/130/101 82/98/100 
f 80/96/101 82/98/100 114/130/101 78/94/103 
f 76/92/101 78/94/103 114/130/101 64/80/101 
f 122/138/101 19/35/100 18/34/100 22/38/101 
f 120/136/101 122/138/101 22/38/101 118/134/100 
f 116/132/100 118/134/100 22/38/101 114/130/101 
f 114/130/101 22/38/101 24/40/100 26/42/100 
f 114/130/101 26/42/100 28/44/100 30/46/101 
f 114/130/101 30/46/101 32/48/101 34/50/101 
f 114/130/101 34/50/101 36/52/101 38/54/101 
f 114/130/101 38/54/101 40/56/100 42/58/101 
f 114/130/101 42/58/101 44/60/101 46/62/101 
f 114/130/101 46/62/101 48/64/100 50/66/103 
f 114/130/101 50/66/103 52/68/100 56/72/100 
f 52/68/100 54/70/103 56/72/100 
f 114/130/101 56/72/100 58/74/103 60/76/101 
f 114/130/101 60/76/101 62/78/100 64/80/101 
f 74/90/101 76/92/101 64/80/101 72/88/100 
f 66/82/100 72/88/100 64/80/101 
f 55/71/104 53/69/104 51/67/105 113/129/106 
f 17/33/106 20/36/104 121/137/104 21/37/104 
f 21/37/104 121/137/104 119/135/104 117/133/104 
f 21/37/104 117/133/104 115/131/106 113/129/106 
f 23/39/104 21/37/104 113/129/106 25/41/106 
f 27/43/106 25/41/106 113/129/106 29/45/104 
f 31/47/104 29/45/104 113/129/106 33/49/104 
f 35/51/106 33/49/104 113/129/106 37/53/106 
f 39/55/106 37/53/106 113/129/106 41/57/106 
f 43/59/106 41/57/106 113/129/106 45/61/104 
f 47/63/104 45/61/104 113/129/106 49/65/105 
f 51/67/105 49/65/105 113/129/106 
f 57/73/104 55/71/104 113/129/106 59/75/105 
f 61/77/106 59/75/105 113/129/106 63/79/104 
f 103/119/105 101/117/106 99/115/105 105/121/104 
f 105/121/104 99/115/105 97/113/104 107/123/104 
f 107/123/104 97/113/104 95/111/104 91/107/106 
f 95/111/104 93/109/106 91/107/106 
f 109/125/104 107/123/104 91/107/106 89/105/104 
f 109/125/104 89/105/104 87/103/106 111/127/104 
f 111/127/104 87/103/106 85/101/106 113/129/106 
f 113/129/106 85/101/106 83/99/106 81/97/106 
f 113/129/106 81/97/106 79/95/106 77/93/104 
f 113/129/106 77/93/104 75/91/104 63/79/104 
f 63/79/104 75/91/104 73/89/105 71/87/104 
f 65/81/106 63/79/104 71/87/104 69/85/104 
f 65/81/106 69/85/104 67/83/106 
s 1
f 123/33/42 124/36/42 125/35/42 126/34/42 
s 4
f 127/37/43 123/33/43 126/34/43 128/38/43 
s 2
f 129/39/44 127/37/45 128/38/45 130/40/44 
f 131/41/46 129/39/44 130/40/44 132/42/46 
f 133/43/47 131/41/46 132/42/46 134/44/47 
f 135/45/48 133/43/47 134/44/47 136/46/48 
f 137/47/49 135/45/48 136/46/48 138/48/49 
f 139/49/50 137/47/49 138/48/49 140/50/50 
f 141/51/51 139/49/50 140/50/50 142/52/51 
s 4
f 143/53/52 141/51/53 142/52/53 144/54/52 
f 145/55/54 143/53/52 144/54/52 146/56/54 
f 147/57/55 145/55/54 146/56/54 148/58/55 
f 149/59/56 147/57/55 148/58/55 150/60/56 
f 151/61/57 149/59/56 150/60/56 152/62/57 
f 153/63/58 151/61/57 152/62/57 154/64/58 
f 155/65/59 153/63/58 154/64/58 156/66/59 
f 157/67/107 155/65/59 156/66/59 158/68/107 
f 159/69/63 157/67/107 158/68/107 160/70/63 
f 161/71/64 159/69/63 160/70/63 162/72/64 
f 163/73/65 161/71/64 162/72/64 164/74/65 
f 165/75/66 163/73/65 164/74/65 166/76/66 
f 167/77/67 165/75/66 166/76/66 168/78/67 
f 169/79/68 167/77/67 168/78/67 170/80/68 
f 171/81/69 169/79/68 170/80/68 172/82/69 
f 173/83/70 171/81/69 172/82/69 174/84/70 
f 175/85/71 173/83/70 174/84/70 176/86/71 
f 177/87/72 175/85/71 176/86/71 178/88/72 
f 179/89/73 177/87/72 178/88/72 180/90/73 
f 181/91/74 179/89/73 180/90/73 182/92/74 
f 183/93/75 181/91/74 182/92/74 184/94/75 
f 185/95/76 183/93/75 184/94/75 186/96/76 
f 187/97/77 185/95/76 186/96/76 188/98/77 
f 189/99/78 187/97/77 188/98/77 190/100/78 
f 191/101/79 189/99/78 190/100/78 192/102/79 
f 193/103/80 191/101/79 192/102/79 194/104/80 
f 195/105/81 193/103/80 194/104/80 196/106/81 
f 197/107/82 195/105/81 196/106/81 198/108/82 
s 2
f 199/109/83 197/107/83 198/108/83 200/110/83 
s 4
f 201/111/84 199/109/85 200/110/85 202/112/84 
f 203/113/86 201/111/84 202/112/84 204/114/86 
f 205/115/87 203/113/86 204/114/86 206/116/87 
f 207/117/88 205/115/87 206/116/87 208/118/88 
f 209/119/89 207/117/88 208/118/88 210/120/89 
f 211/121/90 209/119/89 210/120/89 212/122/90 
f 213/123/91 211/121/90 212/122/90 214/124/91 
f 215/125/92 213/123/91 214/124/91 216/126/92 
f 217/127/93 215/125/92 216/126/92 218/128/93 
f 219/129/94 217/127/93 218/128/93 220/130/94 
f 221/131/95 219/129/94 220/130/94 222/132/95 
f 223/133/96 221/131/95 222/132/95 224/134/96 
f 225/135/97 223/133/96 224/134/96 226/136/97 
f 227/137/98 225/135/97 226/136/97 228/138/98 
s 2
f 124/36/99 227/137/99 228/138/99 125/35/99 
s 16
f 162/72/104 160/70/104 158/68/104 220/130/108 
f 126/34/108 125/35/104 228/138/108 128/38/108 
f 128/38/108 228/138/108 226/136/108 224/134/106 
f 128/38/108 224/134/106 222/132/108 220/130/108 
f 130/40/104 128/38/108 220/130/108 132/42/106 
f 134/44/106 132/42/106 220/130/108 136/46/106 
f 138/48/104 136/46/106 220/130/108 140/50/104 
f 142/52/104 140/50/104 220/130/108 144/54/104 
f 146/56/105 144/54/104 220/130/108 148/58/104 
f 150/60/105 148/58/104 220/130/108 152/62/104 
f 154/64/104 152/62/104 220/130/108 156/66/104 
f 158/68/104 156/66/104 220/130/108 
f 164/74/104 162/72/104 220/130/108 166/76/105 
f 168/78/104 166/76/105 220/130/108 170/80/108 
f 210/120/106 208/118/106 206/116/105 212/122/104 
f 212/122/104 206/116/105 204/114/108 214/124/105 
f 214/124/105 204/114/108 202/112/104 198/108/105 
f 202/112/104 200/110/104 198/108/105 
f 216/126/105 214/124/105 198/108/105 196/106/105 
f 216/126/105 196/106/105 194/104/105 218/128/105 
f 218/128/105 194/104/105 192/102/104 220/130/108 
f 220/130/108 192/102/104 190/100/104 188/98/105 
f 220/130/108 188/98/105 186/96/105 184/94/104 
f 220/130/108 184/94/104 182/92/104 170/80/108 
f 170/80/108 182/92/104 180/90/108 178/88/104 
f 172/82/104 170/80/108 178/88/104 176/86/105 
f 172/82/104 176/86/105 174/84/105 
f 171/81/100 173/83/103 175/85/103 177/87/100 
f 197/107/103 199/109/100 201/111/100 213/123/100 
f 205/115/103 207/117/102 209/119/102 211/121/100 
f 203/113/102 205/115/103 211/121/100 213/123/100 
f 201/111/100 203/113/102 213/123/100 
f 197/107/103 213/123/100 215/125/103 195/105/103 
f 193/103/102 195/105/103 215/125/103 217/127/103 
f 191/101/102 193/103/102 217/127/103 219/129/102 
f 189/99/102 191/101/102 219/129/102 187/97/102 
f 185/95/102 187/97/102 219/129/102 183/93/100 
f 181/91/102 183/93/100 219/129/102 169/79/100 
f 227/137/102 124/36/100 123/33/102 127/37/102 
f 225/135/103 227/137/102 127/37/102 223/133/102 
f 221/131/102 223/133/102 127/37/102 219/129/102 
f 219/129/102 127/37/102 129/39/100 131/41/101 
f 219/129/102 131/41/101 133/43/100 135/45/100 
f 219/129/102 135/45/100 137/47/102 139/49/102 
f 219/129/102 139/49/102 141/51/100 143/53/100 
f 219/129/102 143/53/100 145/55/102 147/57/102 
f 219/129/102 147/57/102 149/59/102 151/61/100 
f 219/129/102 151/61/100 153/63/103 155/65/103 
f 219/129/102 155/65/103 157/67/100 161/71/100 
f 157/67/100 159/69/100 161/71/100 
f 219/129/102 161/71/100 163/73/100 165/75/103 
f 219/129/102 165/75/103 167/77/100 169/79/100 
f 179/89/100 181/91/102 169/79/100 177/87/100 
f 171/81/100 177/87/100 169/79/100 
# 216 polygons - 12 triangles

