# 3ds Max Wavefront OBJ Exporter v0.97b - (c)2007 guruware
# File Created: 24.01.2016 14:46:21

mtllib cassino.mtl

#
# object cassino
#

v  0.6781 0.0445 -1.2324
v  0.7627 0.0445 -1.2522
v  0.7627 -0.0618 -1.2522
v  0.6781 -0.0618 -1.2324
v  0.6059 0.0445 -1.2018
v  0.6059 -0.0618 -1.2018
v  0.5439 0.0445 -1.1620
v  0.5439 -0.0618 -1.1620
v  0.4902 0.0445 -1.1150
v  0.4902 -0.0618 -1.1150
v  0.4427 0.0445 -1.0626
v  0.4427 -0.0618 -1.0626
v  0.3993 0.0445 -1.0066
v  0.3993 -0.0618 -1.0066
v  0.3579 0.0445 -0.9487
v  0.3579 -0.0618 -0.9487
v  0.2940 0.0445 -0.9034
v  0.2940 -0.0618 -0.9034
v  0.2297 0.0445 -0.8606
v  0.2297 -0.0618 -0.8606
v  0.1646 0.0445 -0.8226
v  0.1646 -0.0618 -0.8226
v  0.0984 0.0445 -0.7919
v  0.0984 -0.0618 -0.7919
v  0.0307 0.0445 -0.7709
v  0.0307 -0.0618 -0.7709
v  -0.0389 0.0445 -0.7620
v  -0.0389 -0.0618 -0.7620
v  -0.1108 0.0445 -0.7677
v  -0.1108 -0.0618 -0.7677
v  -0.1873 0.0445 -0.7708
v  -0.1873 -0.0618 -0.7708
v  -0.2696 0.0445 -0.7549
v  -0.2696 -0.0618 -0.7549
v  -0.3569 0.0445 -0.7231
v  -0.3569 -0.0618 -0.7231
v  -0.4481 0.0445 -0.6787
v  -0.4481 -0.0618 -0.6787
v  -0.5423 0.0445 -0.6247
v  -0.5423 -0.0618 -0.6247
v  -0.6384 0.0445 -0.5643
v  -0.6384 -0.0618 -0.5643
v  -0.7355 0.0445 -0.5008
v  -0.7355 -0.0618 -0.5008
v  -0.7731 0.0445 -0.4846
v  -0.7731 -0.0618 -0.4846
v  -0.8115 0.0445 -0.4685
v  -0.8115 -0.0618 -0.4685
v  -0.8516 0.0445 -0.4529
v  -0.8516 -0.0618 -0.4529
v  -0.8941 0.0445 -0.4379
v  -0.8941 -0.0618 -0.4379
v  -0.9399 0.0445 -0.4238
v  -0.9399 -0.0618 -0.4238
v  -0.9898 0.0445 -0.4106
v  -0.9898 -0.0618 -0.4106
v  -1.0445 0.0445 -0.3987
v  -1.0445 -0.0618 -0.3987
v  -1.2871 0.0445 -0.2011
v  -1.2871 -0.0618 -0.2011
v  -1.4069 0.0445 -0.0359
v  -1.4069 -0.0618 -0.0359
v  -1.4243 0.0445 0.1024
v  -1.4243 -0.0618 0.1024
v  -1.3597 0.0445 0.2192
v  -1.3597 -0.0618 0.2192
v  -1.2337 0.0445 0.3198
v  -1.2337 -0.0618 0.3198
v  -1.0668 0.0445 0.4097
v  -1.0668 -0.0618 0.4097
v  -0.8793 0.0445 0.4941
v  -0.8793 -0.0618 0.4941
v  -0.8273 0.0445 0.5737
v  -0.8273 -0.0618 0.5737
v  -0.7707 0.0445 0.6496
v  -0.7707 -0.0618 0.6496
v  -0.7051 0.0445 0.7185
v  -0.7051 -0.0618 0.7185
v  -0.6258 0.0445 0.7768
v  -0.6258 -0.0618 0.7768
v  -0.5285 0.0445 0.8208
v  -0.5285 -0.0618 0.8208
v  -0.4084 0.0445 0.8471
v  -0.4084 -0.0618 0.8471
v  -0.2612 0.0445 0.8521
v  -0.2612 -0.0618 0.8521
v  -0.1123 0.0445 0.8516
v  -0.1123 -0.0618 0.8516
v  0.0126 0.0445 0.8626
v  0.0126 -0.0618 0.8626
v  0.1174 0.0445 0.8831
v  0.1174 -0.0618 0.8831
v  0.2061 0.0445 0.9113
v  0.2061 -0.0618 0.9113
v  0.2828 0.0445 0.9452
v  0.2828 -0.0618 0.9452
v  0.3515 0.0445 0.9828
v  0.3515 -0.0618 0.9828
v  0.4162 0.0445 1.0225
v  0.4162 -0.0618 1.0225
v  0.4768 0.0445 1.0904
v  0.4768 -0.0618 1.0904
v  0.5374 0.0445 1.1546
v  0.5374 -0.0618 1.1546
v  0.5981 0.0445 1.2116
v  0.5981 -0.0618 1.2116
v  0.6590 0.0445 1.2577
v  0.6590 -0.0618 1.2577
v  0.7200 0.0445 1.2893
v  0.7200 -0.0618 1.2893
v  0.7813 0.0445 1.3026
v  0.7813 -0.0618 1.3026
v  0.8428 0.0445 1.2942
v  0.8428 -0.0618 1.2942
v  0.9089 0.0445 1.2789
v  0.9089 -0.0618 1.2789
v  0.9828 0.0445 1.2733
v  0.9828 -0.0618 1.2733
v  1.0633 0.0445 1.2757
v  1.0633 -0.0618 1.2757
v  1.1489 0.0445 1.2846
v  1.1489 -0.0618 1.2846
v  1.2385 0.0445 1.2982
v  1.2385 -0.0618 1.2982
v  1.3307 0.0445 1.3150
v  1.3307 -0.0618 1.3150
v  1.4243 0.0445 1.3335
v  1.4243 -0.0618 1.3335
v  1.4243 0.0445 -1.3335
v  1.4243 -0.0618 -1.3335
v  1.0888 0.8289 0.0391
v  1.2526 1.0182 0.0391
v  1.2526 1.0182 -0.0672
v  1.0888 0.8289 -0.0672
v  0.9408 0.6414 0.0391
v  0.9408 0.6414 -0.0672
v  0.8164 0.4563 0.0391
v  0.8164 0.4563 -0.0672
v  0.7237 0.2745 0.0391
v  0.7237 0.2745 -0.0672
v  0.6704 0.0969 0.0391
v  0.6704 0.0969 -0.0672
v  0.6644 -0.0757 0.0391
v  0.6644 -0.0757 -0.0672
v  0.7028 -0.2440 0.0391
v  0.7028 -0.2440 -0.0672
v  0.7736 -0.4092 0.0391
v  0.7736 -0.4092 -0.0672
v  0.8713 -0.5720 0.0391
v  0.8713 -0.5720 -0.0672
v  0.9907 -0.7328 0.0391
v  0.9907 -0.7328 -0.0672
v  1.1262 -0.8921 0.0391
v  1.1262 -0.8921 -0.0672
v  1.2725 -1.0504 0.0391
v  1.2725 -1.0504 -0.0672
v  1.4243 -1.2082 0.0391
v  1.4243 -1.2082 -0.0672
v  1.4243 1.2082 0.0391
v  1.4243 1.2082 -0.0672
# 160 vertices

vn -0.3104 0.0000 -0.9506
vn -0.1751 0.0000 -0.9845
vn -0.4671 0.0000 -0.8842
vn -0.6009 0.0000 -0.7993
vn -0.7009 0.0000 -0.7133
vn -0.7664 0.0000 -0.6424
vn -0.8023 0.0000 -0.5970
vn -0.8136 0.0000 -0.5814
vn -0.5661 0.0000 -0.8243
vn -0.5777 0.0000 -0.8162
vn -0.5294 0.0000 -0.8484
vn -0.4630 0.0000 -0.8864
vn -0.3594 0.0000 -0.9332
vn -0.2123 0.0000 -0.9772
vn -0.0243 0.0000 -0.9997
vn 0.0598 0.0000 -0.9982
vn -0.0747 0.0000 -0.9972
vn -0.2667 0.0000 -0.9638
vn -0.3907 0.0000 -0.9205
vn -0.4682 0.0000 -0.8836
vn -0.5147 0.0000 -0.8574
vn -0.5396 0.0000 -0.8419
vn -0.5474 0.0000 -0.8368
vn -0.3905 0.0000 -0.9206
vn -0.3961 0.0000 -0.9182
vn -0.3740 0.0000 -0.9274
vn -0.3479 0.0000 -0.9375
vn -0.3142 0.0000 -0.9494
vn -0.2753 0.0000 -0.9613
vn -0.2338 0.0000 -0.9723
vn -0.2125 0.0000 -0.9772
vn -0.7267 0.0000 -0.6869
vn -0.6314 0.0000 -0.7754
vn -0.9301 0.0000 -0.3672
vn -0.9820 0.0000 0.1889
vn -0.7642 0.0000 0.6450
vn -0.5512 0.0000 0.8344
vn -0.4426 0.0000 0.8967
vn -0.4108 0.0000 0.9117
vn -0.8198 0.0000 0.5727
vn -0.8367 0.0000 0.5476
vn -0.7644 0.0000 0.6447
vn -0.6606 0.0000 0.7507
vn -0.5050 0.0000 0.8631
vn -0.3148 0.0000 0.9492
vn -0.1244 0.0000 0.9922
vn -0.0154 0.0000 0.9999
vn -0.0422 0.0000 0.9991
vn -0.1401 0.0000 0.9901
vn -0.2477 0.0000 0.9688
vn -0.3537 0.0000 0.9354
vn -0.4430 0.0000 0.8965
vn -0.5019 0.0000 0.8649
vn -0.5223 0.0000 0.8527
vn -0.7369 0.0000 0.6760
vn -0.7462 0.0000 0.6657
vn -0.7062 0.0000 0.7080
vn -0.6450 0.0000 0.7642
vn -0.5334 0.0000 0.8459
vn -0.3390 0.0000 0.9408
vn -0.0390 0.0000 0.9992
vn 0.1806 0.0000 0.9836
vn 0.1505 0.0000 0.9886
vn 0.0229 0.0000 0.9997
vn -0.0662 0.0000 0.9978
vn -0.1265 0.0000 0.9920
vn -0.1651 0.0000 0.9863
vn -0.1866 0.0000 0.9824
vn -0.1935 0.0000 0.9811
vn 1.0000 0.0000 -0.0000
vn -0.1220 0.0000 -0.9925
vn 0.0000 -1.0000 -0.0000
vn 0.0000 1.0000 -0.0000
vn -0.7707 0.6372 -0.0000
vn -0.7491 0.6625 -0.0000
vn -0.8081 0.5890 -0.0000
vn -0.8619 0.5070 -0.0000
vn -0.9280 0.3725 -0.0000
vn -0.9280 0.3725 0.0000
vn -0.9868 0.1622 0.0000
vn -0.9955 -0.0948 0.0000
vn -0.9955 -0.0948 -0.0000
vn -0.9510 -0.3092 -0.0000
vn -0.8904 -0.4553 -0.0000
vn -0.8311 -0.5561 -0.0000
vn -0.7827 -0.6224 -0.0000
vn -0.7481 -0.6635 -0.0000
vn -0.7276 -0.6860 -0.0000
vn -0.7209 -0.6931 -0.0000
vn -0.7420 0.6704 -0.0000
vn 0.0000 0.0000 -1.0000
vn 0.0000 0.0000 1.0000
# 92 vertex normals

vt 0.7387 0.9456 1.5000
vt 0.7673 0.9525 1.5000
vt 0.7673 0.9525 0.5000
vt 0.7387 0.9456 0.5000
vt 0.7143 0.9348 1.5000
vt 0.7143 0.9348 0.5000
vt 0.6934 0.9208 1.5000
vt 0.6934 0.9208 0.5000
vt 0.6753 0.9043 1.5000
vt 0.6753 0.9043 0.5000
vt 0.6592 0.8859 1.5000
vt 0.6592 0.8859 0.5000
vt 0.6446 0.8662 1.5000
vt 0.6446 0.8662 0.5000
vt 0.6306 0.8459 1.5000
vt 0.6306 0.8459 0.5000
vt 0.6090 0.8300 1.5000
vt 0.6090 0.8300 0.5000
vt 0.5873 0.8149 1.5000
vt 0.5873 0.8149 0.5000
vt 0.5654 0.8016 1.5000
vt 0.5654 0.8016 0.5000
vt 0.5430 0.7908 1.5000
vt 0.5430 0.7908 0.5000
vt 0.5201 0.7834 1.5000
vt 0.5201 0.7834 0.5000
vt 0.4966 0.7803 1.5000
vt 0.4966 0.7803 0.5000
vt 0.4724 0.7823 1.5000
vt 0.4724 0.7823 0.5000
vt 0.4466 0.7834 1.5000
vt 0.4466 0.7834 0.5000
vt 0.4188 0.7778 1.5000
vt 0.4188 0.7778 0.5000
vt 0.3893 0.7666 1.5000
vt 0.3893 0.7666 0.5000
vt 0.3585 0.7510 1.5000
vt 0.3585 0.7510 0.5000
vt 0.3267 0.7320 1.5000
vt 0.3267 0.7320 0.5000
vt 0.2942 0.7108 1.5000
vt 0.2942 0.7108 0.5000
vt 0.2615 0.6885 1.5000
vt 0.2615 0.6885 0.5000
vt 0.2488 0.6828 1.5000
vt 0.2488 0.6828 0.5000
vt 0.2358 0.6771 1.5000
vt 0.2358 0.6771 0.5000
vt 0.2223 0.6717 1.5000
vt 0.2223 0.6717 0.5000
vt 0.2079 0.6664 1.5000
vt 0.2079 0.6664 0.5000
vt 0.1924 0.6614 1.5000
vt 0.1924 0.6614 0.5000
vt 0.1756 0.6568 1.5000
vt 0.1756 0.6568 0.5000
vt 0.1571 0.6526 1.5000
vt 0.1571 0.6526 0.5000
vt 0.0752 0.5832 1.5000
vt 0.0752 0.5832 0.5000
vt 0.0348 0.5251 1.5000
vt 0.0348 0.5251 0.5000
vt 0.0289 0.4765 1.5000
vt 0.0289 0.4765 0.5000
vt 0.0507 0.4355 1.5000
vt 0.0507 0.4355 0.5000
vt 0.0932 0.4001 1.5000
vt 0.0932 0.4001 0.5000
vt 0.1496 0.3686 1.5000
vt 0.1496 0.3686 0.5000
vt 0.2129 0.3389 1.5000
vt 0.2129 0.3389 0.5000
vt 0.2305 0.3109 1.5000
vt 0.2305 0.3109 0.5000
vt 0.2496 0.2842 1.5000
vt 0.2496 0.2842 0.5000
vt 0.2717 0.2600 1.5000
vt 0.2717 0.2600 0.5000
vt 0.2985 0.2396 1.5000
vt 0.2985 0.2396 0.5000
vt 0.3314 0.2241 1.5000
vt 0.3314 0.2241 0.5000
vt 0.3719 0.2149 1.5000
vt 0.3719 0.2149 0.5000
vt 0.4216 0.2131 1.5000
vt 0.4216 0.2131 0.5000
vt 0.4719 0.2133 1.5000
vt 0.4719 0.2133 0.5000
vt 0.5140 0.2094 1.5000
vt 0.5140 0.2094 0.5000
vt 0.5494 0.2022 1.5000
vt 0.5494 0.2022 0.5000
vt 0.5794 0.1923 1.5000
vt 0.5794 0.1923 0.5000
vt 0.6053 0.1804 1.5000
vt 0.6053 0.1804 0.5000
vt 0.6285 0.1672 1.5000
vt 0.6285 0.1672 0.5000
vt 0.6503 0.1532 1.5000
vt 0.6503 0.1532 0.5000
vt 0.6707 0.1294 1.5000
vt 0.6707 0.1294 0.5000
vt 0.6912 0.1068 1.5000
vt 0.6912 0.1068 0.5000
vt 0.7117 0.0868 1.5000
vt 0.7117 0.0868 0.5000
vt 0.7323 0.0706 1.5000
vt 0.7323 0.0706 0.5000
vt 0.7529 0.0595 1.5000
vt 0.7529 0.0595 0.5000
vt 0.7736 0.0548 1.5000
vt 0.7736 0.0548 0.5000
vt 0.7943 0.0578 1.5000
vt 0.7943 0.0578 0.5000
vt 0.8167 0.0631 1.5000
vt 0.8167 0.0631 0.5000
vt 0.8416 0.0651 1.5000
vt 0.8416 0.0651 0.5000
vt 0.8688 0.0642 1.5000
vt 0.8688 0.0642 0.5000
vt 0.8977 0.0611 1.5000
vt 0.8977 0.0611 0.5000
vt 0.9279 0.0564 1.5000
vt 0.9279 0.0564 0.5000
vt 0.9591 0.0504 1.5000
vt 0.9591 0.0504 0.5000
vt 0.9906 0.0440 1.5000
vt 0.9906 0.0440 0.5000
vt 0.9906 0.9811 1.5000
vt 0.9906 0.9811 0.5000
vt 0.8778 0.8029 1.5000
vt 0.9311 0.8698 1.5000
vt 0.9311 0.8698 0.5000
vt 0.8778 0.8029 0.5000
vt 0.8296 0.7366 1.5000
vt 0.8296 0.7366 0.5000
vt 0.7892 0.6712 1.5000
vt 0.7892 0.6712 0.5000
vt 0.7590 0.6069 1.5000
vt 0.7590 0.6069 0.5000
vt 0.7417 0.5441 1.5000
vt 0.7417 0.5441 0.5000
vt 0.7398 0.4831 1.5000
vt 0.7398 0.4831 0.5000
vt 0.7522 0.4236 1.5000
vt 0.7522 0.4236 0.5000
vt 0.7753 0.3652 1.5000
vt 0.7753 0.3652 0.5000
vt 0.8070 0.3076 1.5000
vt 0.8070 0.3076 0.5000
vt 0.8459 0.2508 1.5000
vt 0.8459 0.2508 0.5000
vt 0.8899 0.1944 1.5000
vt 0.8899 0.1944 0.5000
vt 0.9375 0.1385 1.5000
vt 0.9375 0.1385 0.5000
vt 0.9869 0.0827 1.5000
vt 0.9869 0.0827 0.5000
vt 0.9869 0.9370 1.5000
vt 0.9869 0.9370 0.5000
# 160 texture coords

g cassino
usemtl Material__89
s 1
f 1/1/1 2/2/2 3/3/2 4/4/1 
s 3
f 5/5/3 1/1/1 4/4/1 6/6/3 
s 2
f 7/7/4 5/5/3 6/6/3 8/8/4 
f 9/9/5 7/7/4 8/8/4 10/10/5 
f 11/11/6 9/9/5 10/10/5 12/12/6 
f 13/13/7 11/11/6 12/12/6 14/14/7 
f 15/15/8 13/13/7 14/14/7 16/16/8 
s 4
f 17/17/9 15/15/10 16/16/10 18/18/9 
f 19/19/11 17/17/9 18/18/9 20/20/11 
f 21/21/12 19/19/11 20/20/11 22/22/12 
f 23/23/13 21/21/12 22/22/12 24/24/13 
f 25/25/14 23/23/13 24/24/13 26/26/14 
f 27/27/15 25/25/14 26/26/14 28/28/15 
f 29/29/16 27/27/15 28/28/15 30/30/16 
f 31/31/17 29/29/16 30/30/16 32/32/17 
f 33/33/18 31/31/17 32/32/17 34/34/18 
f 35/35/19 33/33/18 34/34/18 36/36/19 
f 37/37/20 35/35/19 36/36/19 38/38/20 
f 39/39/21 37/37/20 38/38/20 40/40/21 
f 41/41/22 39/39/21 40/40/21 42/42/22 
f 43/43/23 41/41/22 42/42/22 44/44/23 
s 2
f 45/45/24 43/43/25 44/44/25 46/46/24 
f 47/47/26 45/45/24 46/46/24 48/48/26 
f 49/49/27 47/47/26 48/48/26 50/50/27 
f 51/51/28 49/49/27 50/50/27 52/52/28 
f 53/53/29 51/51/28 52/52/28 54/54/29 
f 55/55/30 53/53/29 54/54/29 56/56/30 
f 57/57/31 55/55/30 56/56/30 58/58/31 
s 4
f 59/59/32 57/57/33 58/58/33 60/60/32 
f 61/61/34 59/59/32 60/60/32 62/62/34 
f 63/63/35 61/61/34 62/62/34 64/64/35 
f 65/65/36 63/63/35 64/64/35 66/66/36 
f 67/67/37 65/65/36 66/66/36 68/68/37 
f 69/69/38 67/67/37 68/68/37 70/70/38 
f 71/71/39 69/69/38 70/70/38 72/72/39 
s 2
f 73/73/40 71/71/41 72/72/41 74/74/40 
f 75/75/42 73/73/40 74/74/40 76/76/42 
f 77/77/43 75/75/42 76/76/42 78/78/43 
f 79/79/44 77/77/43 78/78/43 80/80/44 
f 81/81/45 79/79/44 80/80/44 82/82/45 
f 83/83/46 81/81/45 82/82/45 84/84/46 
f 85/85/47 83/83/46 84/84/46 86/86/47 
f 87/87/48 85/85/47 86/86/47 88/88/48 
f 89/89/49 87/87/48 88/88/48 90/90/49 
f 91/91/50 89/89/49 90/90/49 92/92/50 
f 93/93/51 91/91/50 92/92/50 94/94/51 
f 95/95/52 93/93/51 94/94/51 96/96/52 
f 97/97/53 95/95/52 96/96/52 98/98/53 
f 99/99/54 97/97/53 98/98/53 100/100/54 
s 4
f 101/101/55 99/99/56 100/100/56 102/102/55 
f 103/103/57 101/101/55 102/102/55 104/104/57 
f 105/105/58 103/103/57 104/104/57 106/106/58 
f 107/107/59 105/105/58 106/106/58 108/108/59 
f 109/109/60 107/107/59 108/108/59 110/110/60 
f 111/111/61 109/109/60 110/110/60 112/112/61 
f 113/113/62 111/111/61 112/112/61 114/114/62 
f 115/115/63 113/113/62 114/114/62 116/116/63 
f 117/117/64 115/115/63 116/116/63 118/118/64 
f 119/119/65 117/117/64 118/118/64 120/120/65 
f 121/121/66 119/119/65 120/120/65 122/122/66 
f 123/123/67 121/121/66 122/122/66 124/124/67 
f 125/125/68 123/123/67 124/124/67 126/126/68 
f 127/127/69 125/125/68 126/126/68 128/128/69 
s 2
f 129/129/70 127/127/70 128/128/70 130/130/70 
s 5
f 2/2/2 129/129/71 130/130/71 3/3/2 
s 16
f 66/66/72 64/64/72 62/62/72 68/68/72 
f 68/68/72 62/62/72 60/60/72 58/58/72 
f 68/68/72 58/58/72 56/56/72 70/70/72 
f 70/70/72 56/56/72 54/54/72 52/52/72 
f 70/70/72 52/52/72 50/50/72 72/72/72 
f 72/72/72 50/50/72 48/48/72 46/46/72 
f 72/72/72 46/46/72 44/44/72 74/74/72 
f 76/76/72 74/74/72 44/44/72 78/78/72 
f 80/80/72 78/78/72 44/44/72 82/82/72 
f 84/84/72 82/82/72 44/44/72 86/86/72 
f 86/86/72 44/44/72 42/42/72 40/40/72 
f 86/86/72 40/40/72 38/38/72 36/36/72 
f 86/86/72 36/36/72 34/34/72 32/32/72 
f 86/86/72 32/32/72 30/30/72 88/88/72 
f 88/88/72 30/30/72 28/28/72 90/90/72 
f 90/90/72 28/28/72 26/26/72 92/92/72 
f 92/92/72 26/26/72 24/24/72 94/94/72 
f 94/94/72 24/24/72 22/22/72 96/96/72 
f 98/98/72 96/96/72 22/22/72 100/100/72 
f 102/102/72 100/100/72 22/22/72 104/104/72 
f 106/106/72 104/104/72 22/22/72 108/108/72 
f 110/110/72 108/108/72 22/22/72 112/112/72 
f 114/114/72 112/112/72 22/22/72 116/116/72 
f 116/116/72 22/22/72 20/20/72 118/118/72 
f 118/118/72 20/20/72 18/18/72 16/16/72 
f 118/118/72 16/16/72 14/14/72 12/12/72 
f 118/118/72 12/12/72 10/10/72 8/8/72 
f 118/118/72 8/8/72 6/6/72 4/4/72 
f 118/118/72 4/4/72 3/3/72 120/120/72 
f 122/122/72 120/120/72 3/3/72 124/124/72 
f 126/126/72 124/124/72 3/3/72 130/130/72 
f 126/126/72 130/130/72 128/128/72 
f 125/125/73 127/127/73 129/129/73 2/2/73 
f 61/61/73 63/63/73 65/65/73 67/67/73 
f 59/59/73 61/61/73 67/67/73 57/57/73 
f 55/55/73 57/57/73 67/67/73 69/69/73 
f 53/53/73 55/55/73 69/69/73 51/51/73 
f 49/49/73 51/51/73 69/69/73 71/71/73 
f 47/47/73 49/49/73 71/71/73 45/45/73 
f 43/43/73 45/45/73 71/71/73 73/73/73 
f 43/43/73 73/73/73 75/75/73 77/77/73 
f 43/43/73 77/77/73 79/79/73 81/81/73 
f 43/43/73 81/81/73 83/83/73 85/85/73 
f 41/41/73 43/43/73 85/85/73 39/39/73 
f 37/37/73 39/39/73 85/85/73 35/35/73 
f 33/33/73 35/35/73 85/85/73 31/31/73 
f 29/29/73 31/31/73 85/85/73 87/87/73 
f 27/27/73 29/29/73 87/87/73 89/89/73 
f 25/25/73 27/27/73 89/89/73 91/91/73 
f 23/23/73 25/25/73 91/91/73 93/93/73 
f 21/21/73 23/23/73 93/93/73 95/95/73 
f 21/21/73 95/95/73 97/97/73 99/99/73 
f 21/21/73 99/99/73 101/101/73 103/103/73 
f 21/21/73 103/103/73 105/105/73 107/107/73 
f 21/21/73 107/107/73 109/109/73 111/111/73 
f 21/21/73 111/111/73 113/113/73 115/115/73 
f 19/19/73 21/21/73 115/115/73 117/117/73 
f 17/17/73 19/19/73 117/117/73 15/15/73 
f 13/13/73 15/15/73 117/117/73 11/11/73 
f 9/9/73 11/11/73 117/117/73 7/7/73 
f 5/5/73 7/7/73 117/117/73 1/1/73 
f 2/2/73 1/1/73 117/117/73 119/119/73 
f 2/2/73 119/119/73 121/121/73 123/123/73 
f 125/125/73 2/2/73 123/123/73 
usemtl Material__90
s 1
f 131/131/74 132/132/75 133/133/75 134/134/74 
s 3
f 135/135/76 131/131/74 134/134/74 136/136/76 
s 2
f 137/137/77 135/135/76 136/136/76 138/138/77 
f 139/139/78 137/137/77 138/138/77 140/140/79 
f 141/141/80 139/139/78 140/140/79 142/142/80 
f 143/143/81 141/141/80 142/142/80 144/144/82 
f 145/145/83 143/143/81 144/144/82 146/146/83 
f 147/147/84 145/145/83 146/146/83 148/148/84 
f 149/149/85 147/147/84 148/148/84 150/150/85 
f 151/151/86 149/149/85 150/150/85 152/152/86 
f 153/153/87 151/151/86 152/152/86 154/154/87 
f 155/155/88 153/153/87 154/154/87 156/156/88 
f 157/157/89 155/155/88 156/156/88 158/158/89 
s 4
f 159/159/70 157/157/70 158/158/70 160/160/70 
s 3
f 132/132/75 159/159/90 160/160/90 133/133/75 
s 16
f 146/146/91 144/144/91 142/142/91 140/140/91 
f 148/148/91 146/146/91 140/140/91 138/138/91 
f 150/150/91 148/148/91 138/138/91 136/136/91 
f 152/152/91 150/150/91 136/136/91 134/134/91 
f 154/154/91 152/152/91 134/134/91 156/156/91 
f 156/156/91 134/134/91 133/133/91 158/158/91 
f 158/158/91 133/133/91 160/160/91 
f 157/157/92 159/159/92 132/132/92 155/155/92 
f 141/141/92 143/143/92 145/145/92 139/139/92 
f 139/139/92 145/145/92 147/147/92 137/137/92 
f 137/137/92 147/147/92 149/149/92 135/135/92 
f 135/135/92 149/149/92 151/151/92 131/131/92 
f 131/131/92 151/151/92 153/153/92 155/155/92 
f 132/132/92 131/131/92 155/155/92 
# 154 polygons - 4 triangles

