# 3ds Max Wavefront OBJ Exporter v0.97b - (c)2007 guruware
# File Created: 24.01.2016 16:09:26

mtllib infopoint.mtl

#
# object infopoint
#

v  0.0626 -0.5143 -1.3697
v  0.0626 -0.9036 -1.3004
v  -0.0438 -0.9036 -1.3004
v  -0.0438 -0.5143 -1.3697
v  0.0626 -0.1440 -1.4187
v  -0.0438 -0.1440 -1.4187
v  0.0626 0.1979 -1.4371
v  -0.0438 0.1979 -1.4371
v  0.0626 0.5019 -1.4148
v  -0.0438 0.5019 -1.4148
v  0.0626 0.7586 -1.3416
v  -0.0438 0.7586 -1.3416
v  0.0626 0.9584 -1.2073
v  -0.0438 0.9584 -1.2073
v  0.0626 1.1017 -1.0410
v  -0.0438 1.1017 -1.0410
v  0.0626 1.2003 -0.8783
v  -0.0438 1.2003 -0.8783
v  0.0626 1.2617 -0.7185
v  -0.0438 1.2617 -0.7185
v  0.0626 1.2932 -0.5611
v  -0.0438 1.2932 -0.5611
v  0.0626 1.3023 -0.4055
v  -0.0438 1.3023 -0.4055
v  0.0626 1.2965 -0.2511
v  -0.0438 1.2965 -0.2511
v  0.0626 1.2833 -0.0973
v  -0.0438 1.2833 -0.0973
v  0.0626 1.2791 0.1025
v  -0.0438 1.2791 0.1025
v  0.0626 1.2672 0.3000
v  -0.0438 1.2672 0.3000
v  0.0626 1.2400 0.4931
v  -0.0438 1.2400 0.4931
v  0.0626 1.1896 0.6794
v  -0.0438 1.1896 0.6794
v  0.0626 1.1085 0.8566
v  -0.0438 1.1085 0.8566
v  0.0626 0.9888 1.0227
v  -0.0438 0.9888 1.0227
v  0.0626 0.8230 1.1752
v  -0.0438 0.8230 1.1752
v  0.0626 0.6312 1.2979
v  -0.0438 0.6312 1.2979
v  0.0626 0.4406 1.3791
v  -0.0438 0.4406 1.3791
v  0.0626 0.2540 1.4239
v  -0.0438 0.2540 1.4239
v  0.0626 0.0743 1.4371
v  -0.0438 0.0743 1.4371
v  0.0626 -0.0958 1.4239
v  -0.0438 -0.0958 1.4239
v  0.0626 -0.2532 1.3890
v  -0.0438 -0.2532 1.3890
v  0.0626 -0.3953 1.3377
v  -0.0438 -0.3953 1.3377
v  0.0626 -0.5280 1.2880
v  -0.0438 -0.5280 1.2880
v  0.0626 -0.6592 1.2532
v  -0.0438 -0.6592 1.2532
v  0.0626 -0.7893 1.2308
v  -0.0438 -0.7893 1.2308
v  0.0626 -0.9184 1.2183
v  -0.0438 -0.9184 1.2183
v  0.0626 -1.0467 1.2134
v  -0.0438 -1.0467 1.2134
v  0.0626 -1.1746 1.2133
v  -0.0438 -1.1746 1.2133
v  0.0626 -1.3023 1.2158
v  -0.0438 -1.3023 1.2158
v  0.0626 -1.3023 -1.2208
v  -0.0438 -1.3023 -1.2208
v  0.8289 -0.9667 0.0498
v  1.0182 -1.1305 0.0498
v  1.0182 -1.1305 -0.0566
v  0.8289 -0.9667 -0.0566
v  0.6414 -0.8187 0.0498
v  0.6414 -0.8187 -0.0566
v  0.4563 -0.6943 0.0498
v  0.4563 -0.6943 -0.0566
v  0.2745 -0.6016 0.0498
v  0.2745 -0.6016 -0.0566
v  0.0969 -0.5483 0.0498
v  0.0969 -0.5483 -0.0566
v  -0.0757 -0.5423 0.0498
v  -0.0757 -0.5423 -0.0566
v  -0.2440 -0.5807 0.0498
v  -0.2440 -0.5807 -0.0566
v  -0.4092 -0.6515 0.0498
v  -0.4092 -0.6515 -0.0566
v  -0.5720 -0.7492 0.0498
v  -0.5720 -0.7492 -0.0566
v  -0.7328 -0.8685 0.0498
v  -0.7328 -0.8685 -0.0566
v  -0.8921 -1.0041 0.0498
v  -0.8921 -1.0041 -0.0566
v  -1.0504 -1.1504 0.0498
v  -1.0504 -1.1504 -0.0566
v  -1.2082 -1.3022 0.0498
v  -1.2082 -1.3022 -0.0566
v  1.2082 -1.3022 0.0498
v  1.2082 -1.3022 -0.0566
# 102 vertices

vn 0.0000 -0.1533 -0.9882
vn 0.0000 -0.1855 -0.9826
vn 0.0000 -0.0925 -0.9957
vn 0.0000 0.0097 -1.0000
vn 0.0000 0.1747 -0.9846
vn 0.0000 0.4213 -0.9069
vn 0.0000 0.6636 -0.7481
vn 0.0000 0.8091 -0.5877
vn 0.0000 0.8980 -0.4401
vn 0.0000 0.9605 -0.2783
vn 0.0000 0.9918 -0.1277
vn 0.0000 0.9999 -0.0106
vn 0.0000 0.9981 0.0617
vn 0.0000 0.9963 0.0858
vn 0.0000 0.9992 0.0404
vn 0.0000 0.9998 0.0209
vn 0.0000 0.9950 0.1000
vn 0.0000 0.9796 0.2008
vn 0.0000 0.9405 0.3397
vn 0.0000 0.8644 0.5027
vn 0.0000 0.7481 0.6636
vn 0.0000 0.6102 0.7922
vn 0.0000 0.4670 0.8843
vn 0.0000 0.3137 0.9495
vn -0.0000 0.3137 0.9495
vn -0.0000 0.1539 0.9881
vn -0.0000 -0.0021 1.0000
vn 0.0000 -0.0021 1.0000
vn 0.0000 -0.1472 0.9891
vn 0.0000 -0.2785 0.9604
vn 0.0000 -0.3455 0.9384
vn 0.0000 -0.3040 0.9527
vn 0.0000 -0.2131 0.9770
vn 0.0000 -0.1329 0.9911
vn 0.0000 -0.0674 0.9977
vn 0.0000 -0.0194 0.9998
vn 0.0000 0.0097 1.0000
vn 0.0000 0.0194 0.9998
vn 0.0000 -1.0000 -0.0000
vn 0.0000 -0.1956 -0.9807
vn -1.0000 0.0000 -0.0000
vn 1.0000 0.0000 -0.0000
vn 0.6372 0.7707 -0.0000
vn 0.6625 0.7491 -0.0000
vn 0.5890 0.8081 -0.0000
vn 0.5070 0.8619 -0.0000
vn 0.3725 0.9280 -0.0000
vn 0.1622 0.9868 -0.0000
vn -0.0948 0.9955 -0.0000
vn -0.3092 0.9510 -0.0000
vn -0.4553 0.8904 -0.0000
vn -0.5561 0.8311 -0.0000
vn -0.6224 0.7827 -0.0000
vn -0.6636 0.7481 -0.0000
vn -0.6860 0.7276 -0.0000
vn -0.6931 0.7209 -0.0000
vn 0.6704 0.7420 -0.0000
vn 0.0000 0.0000 -1.0000
vn 0.0000 0.0000 1.0000
# 59 vertex normals

vt 0.7202 0.9502 1.5000
vt 0.8605 0.9285 1.5000
vt 0.8605 0.9285 0.5000
vt 0.7202 0.9502 0.5000
vt 0.5868 0.9656 1.5000
vt 0.5868 0.9656 0.5000
vt 0.4636 0.9714 1.5000
vt 0.4636 0.9714 0.5000
vt 0.3540 0.9644 1.5000
vt 0.3540 0.9644 0.5000
vt 0.2616 0.9414 1.5000
vt 0.2616 0.9414 0.5000
vt 0.1896 0.8993 1.5000
vt 0.1896 0.8993 0.5000
vt 0.1379 0.8471 1.5000
vt 0.1379 0.8471 0.5000
vt 0.1024 0.7961 1.5000
vt 0.1024 0.7961 0.5000
vt 0.0803 0.7459 1.5000
vt 0.0803 0.7459 0.5000
vt 0.0689 0.6966 1.5000
vt 0.0689 0.6966 0.5000
vt 0.0657 0.6478 1.5000
vt 0.0657 0.6478 0.5000
vt 0.0677 0.5993 1.5000
vt 0.0677 0.5993 0.5000
vt 0.0725 0.5511 1.5000
vt 0.0725 0.5511 0.5000
vt 0.0740 0.4884 1.5000
vt 0.0740 0.4884 0.5000
vt 0.0783 0.4265 1.5000
vt 0.0783 0.4265 0.5000
vt 0.0881 0.3659 1.5000
vt 0.0881 0.3659 0.5000
vt 0.1063 0.3075 1.5000
vt 0.1063 0.3075 0.5000
vt 0.1355 0.2519 1.5000
vt 0.1355 0.2519 0.5000
vt 0.1803 0.1852 1.5000
vt 0.1803 0.1852 0.5000
vt 0.2400 0.1374 1.5000
vt 0.2400 0.1374 0.5000
vt 0.3091 0.0989 1.5000
vt 0.3091 0.0989 0.5000
vt 0.3778 0.0734 1.5000
vt 0.3778 0.0734 0.5000
vt 0.4450 0.0594 1.5000
vt 0.4450 0.0594 0.5000
vt 0.5098 0.0552 1.5000
vt 0.5098 0.0552 0.5000
vt 0.5711 0.0594 1.5000
vt 0.5711 0.0594 0.5000
vt 0.6278 0.0703 1.5000
vt 0.6278 0.0703 0.5000
vt 0.6790 0.0864 1.5000
vt 0.6790 0.0864 0.5000
vt 0.7268 0.1020 1.5000
vt 0.7268 0.1020 0.5000
vt 0.7741 0.1129 1.5000
vt 0.7741 0.1129 0.5000
vt 0.8209 0.1199 1.5000
vt 0.8209 0.1199 0.5000
vt 0.8675 0.1238 1.5000
vt 0.8675 0.1238 0.5000
vt 0.9121 0.1303 1.5000
vt 0.9121 0.1303 0.5000
vt 0.9517 0.1303 1.5000
vt 0.9517 0.1303 0.5000
vt 0.9944 0.1214 1.5000
vt 0.9944 0.1214 0.5000
vt 0.9977 0.9035 1.5000
vt 0.9977 0.9035 0.5000
vt 0.8888 0.7773 1.5000
vt 0.9399 0.8353 1.5000
vt 0.9399 0.8353 0.5000
vt 0.8888 0.7773 0.5000
vt 0.8427 0.7199 1.5000
vt 0.8427 0.7199 0.5000
vt 0.8040 0.6632 1.5000
vt 0.8040 0.6632 0.5000
vt 0.7751 0.6075 1.5000
vt 0.7751 0.6075 0.5000
vt 0.7585 0.5531 1.5000
vt 0.7585 0.5531 0.5000
vt 0.7567 0.5002 1.5000
vt 0.7567 0.5002 0.5000
vt 0.7686 0.4486 1.5000
vt 0.7686 0.4486 0.5000
vt 0.7907 0.3980 1.5000
vt 0.7907 0.3980 0.5000
vt 0.8211 0.3481 1.5000
vt 0.8211 0.3481 0.5000
vt 0.8583 0.2989 1.5000
vt 0.8583 0.2989 0.5000
vt 0.9005 0.2501 1.5000
vt 0.9005 0.2501 0.5000
vt 0.9461 0.2016 1.5000
vt 0.9461 0.2016 0.5000
vt 0.9933 0.1532 1.5000
vt 0.9933 0.1532 0.5000
vt 0.9933 0.8935 1.5000
vt 0.9933 0.8935 0.5000
# 102 texture coords

g infopoint
usemtl Material__84
s 1
f 1/1/1 2/2/2 3/3/2 4/4/1 
s 3
f 5/5/3 1/1/1 4/4/1 6/6/3 
s 2
f 7/7/4 5/5/3 6/6/3 8/8/4 
f 9/9/5 7/7/4 8/8/4 10/10/5 
f 11/11/6 9/9/5 10/10/5 12/12/6 
f 13/13/7 11/11/6 12/12/6 14/14/7 
f 15/15/8 13/13/7 14/14/7 16/16/8 
f 17/17/9 15/15/8 16/16/8 18/18/9 
f 19/19/10 17/17/9 18/18/9 20/20/10 
f 21/21/11 19/19/10 20/20/10 22/22/11 
f 23/23/12 21/21/11 22/22/11 24/24/12 
f 25/25/13 23/23/12 24/24/12 26/26/13 
f 27/27/14 25/25/13 26/26/13 28/28/14 
s 4
f 29/29/15 27/27/16 28/28/16 30/30/15 
f 31/31/17 29/29/15 30/30/15 32/32/17 
f 33/33/18 31/31/17 32/32/17 34/34/18 
f 35/35/19 33/33/18 34/34/18 36/36/19 
f 37/37/20 35/35/19 36/36/19 38/38/20 
f 39/39/21 37/37/20 38/38/20 40/40/21 
f 41/41/22 39/39/21 40/40/21 42/42/22 
f 43/43/23 41/41/22 42/42/22 44/44/23 
f 45/45/24 43/43/23 44/44/23 46/46/25 
f 47/47/26 45/45/24 46/46/25 48/48/26 
f 49/49/27 47/47/26 48/48/26 50/50/28 
f 51/51/29 49/49/27 50/50/28 52/52/29 
f 53/53/30 51/51/29 52/52/29 54/54/30 
f 55/55/31 53/53/30 54/54/30 56/56/31 
f 57/57/32 55/55/31 56/56/31 58/58/32 
f 59/59/33 57/57/32 58/58/32 60/60/33 
f 61/61/34 59/59/33 60/60/33 62/62/34 
f 63/63/35 61/61/34 62/62/34 64/64/35 
f 65/65/36 63/63/35 64/64/35 66/66/36 
f 67/67/37 65/65/36 66/66/36 68/68/37 
f 69/69/38 67/67/37 68/68/37 70/70/38 
s 2
f 71/71/39 69/69/39 70/70/39 72/72/39 
s 5
f 2/2/2 71/71/40 72/72/40 3/3/2 
s 16
f 22/22/41 20/20/41 18/18/41 16/16/41 
f 22/22/41 16/16/41 14/14/41 12/12/41 
f 22/22/41 12/12/41 10/10/41 24/24/41 
f 26/26/41 24/24/41 10/10/41 8/8/41 
f 28/28/41 26/26/41 8/8/41 30/30/41 
f 32/32/41 30/30/41 8/8/41 34/34/41 
f 36/36/41 34/34/41 8/8/41 38/38/41 
f 40/40/41 38/38/41 8/8/41 42/42/41 
f 44/44/41 42/42/41 8/8/41 46/46/41 
f 48/48/41 46/46/41 8/8/41 50/50/41 
f 52/52/41 50/50/41 8/8/41 54/54/41 
f 56/56/41 54/54/41 8/8/41 58/58/41 
f 58/58/41 8/8/41 6/6/41 60/60/41 
f 60/60/41 6/6/41 4/4/41 62/62/41 
f 62/62/41 4/4/41 3/3/41 64/64/41 
f 66/66/41 64/64/41 3/3/41 72/72/41 
f 68/68/41 66/66/41 72/72/41 70/70/41 
f 67/67/42 69/69/42 71/71/42 65/65/42 
f 17/17/42 19/19/42 21/21/42 15/15/42 
f 13/13/42 15/15/42 21/21/42 11/11/42 
f 9/9/42 11/11/42 21/21/42 23/23/42 
f 9/9/42 23/23/42 25/25/42 7/7/42 
f 7/7/42 25/25/42 27/27/42 29/29/42 
f 7/7/42 29/29/42 31/31/42 33/33/42 
f 7/7/42 33/33/42 35/35/42 37/37/42 
f 7/7/42 37/37/42 39/39/42 41/41/42 
f 7/7/42 41/41/42 43/43/42 45/45/42 
f 7/7/42 45/45/42 47/47/42 49/49/42 
f 7/7/42 49/49/42 51/51/42 53/53/42 
f 7/7/42 53/53/42 55/55/42 57/57/42 
f 5/5/42 7/7/42 57/57/42 59/59/42 
f 1/1/42 5/5/42 59/59/42 61/61/42 
f 2/2/42 1/1/42 61/61/42 63/63/42 
f 2/2/42 63/63/42 65/65/42 71/71/42 
usemtl Material__91
s 1
f 73/73/43 74/74/44 75/75/44 76/76/43 
s 3
f 77/77/45 73/73/43 76/76/43 78/78/45 
s 2
f 79/79/46 77/77/45 78/78/45 80/80/46 
f 81/81/47 79/79/46 80/80/46 82/82/47 
f 83/83/48 81/81/47 82/82/47 84/84/48 
f 85/85/49 83/83/48 84/84/48 86/86/49 
f 87/87/50 85/85/49 86/86/49 88/88/50 
f 89/89/51 87/87/50 88/88/50 90/90/51 
f 91/91/52 89/89/51 90/90/51 92/92/52 
f 93/93/53 91/91/52 92/92/52 94/94/53 
f 95/95/54 93/93/53 94/94/53 96/96/54 
f 97/97/55 95/95/54 96/96/54 98/98/55 
f 99/99/56 97/97/55 98/98/55 100/100/56 
s 4
f 101/101/39 99/99/39 100/100/39 102/102/39 
s 3
f 74/74/44 101/101/57 102/102/57 75/75/44 
s 16
f 88/88/58 86/86/58 84/84/58 82/82/58 
f 90/90/58 88/88/58 82/82/58 80/80/58 
f 92/92/58 90/90/58 80/80/58 78/78/58 
f 94/94/58 92/92/58 78/78/58 76/76/58 
f 96/96/58 94/94/58 76/76/58 98/98/58 
f 98/98/58 76/76/58 75/75/58 100/100/58 
f 100/100/58 75/75/58 102/102/58 
f 99/99/59 101/101/59 74/74/59 97/97/59 
f 83/83/59 85/85/59 87/87/59 81/81/59 
f 81/81/59 87/87/59 89/89/59 79/79/59 
f 79/79/59 89/89/59 91/91/59 77/77/59 
f 77/77/59 91/91/59 93/93/59 73/73/59 
f 73/73/59 93/93/59 95/95/59 97/97/59 
f 74/74/59 73/73/59 97/97/59 
# 97 polygons - 2 triangles

