# 3ds Max Wavefront OBJ Exporter v0.97b - (c)2007 guruware
# File Created: 24.01.2016 13:18:43

mtllib promotion.mtl

#
# object promotion
#

v  6.7205 0.2658 -5.3183
v  6.8712 0.2658 -5.2234
v  6.8712 -0.2342 -5.2234
v  6.7205 -0.2342 -5.3183
v  6.4985 0.2658 -5.3652
v  6.4985 -0.2342 -5.3652
v  6.1697 0.2658 -5.3404
v  6.1697 -0.2342 -5.3404
v  5.6984 0.2658 -5.2197
v  5.6984 -0.2342 -5.2197
v  5.0490 0.2658 -4.9794
v  5.0490 -0.2342 -4.9794
v  4.1858 0.2658 -4.5954
v  4.1858 -0.2342 -4.5954
v  3.3109 0.2658 -4.2279
v  3.3109 -0.2342 -4.2279
v  2.5951 0.2658 -4.0486
v  2.5951 -0.2342 -4.0486
v  1.9561 0.2658 -4.0508
v  1.9561 -0.2342 -4.0508
v  1.3115 0.2658 -4.2278
v  1.3115 -0.2342 -4.2278
v  0.5789 0.2658 -4.5730
v  0.5789 -0.2342 -4.5730
v  -0.3240 0.2658 -5.0796
v  -0.3240 -0.2342 -5.0796
v  -1.4797 0.2658 -5.7410
v  -1.4797 -0.2342 -5.7410
v  -2.6704 0.2658 -6.2678
v  -2.6704 -0.2342 -6.2678
v  -3.6473 0.2658 -6.4172
v  -3.6473 -0.2342 -6.4172
v  -4.4461 0.2658 -6.2520
v  -4.4461 -0.2342 -6.2520
v  -5.1023 0.2658 -5.8352
v  -5.1023 -0.2342 -5.8352
v  -5.6517 0.2658 -5.2296
v  -5.6517 -0.2342 -5.2296
v  -6.1297 0.2658 -4.4983
v  -6.1297 -0.2342 -4.4983
v  -6.5722 0.2658 -3.7040
v  -6.5722 -0.2342 -3.7040
v  -6.6802 0.2658 -2.6272
v  -6.6802 -0.2342 -2.6272
v  -6.7815 0.2658 -1.5555
v  -6.7815 -0.2342 -1.5555
v  -6.8695 0.2658 -0.4938
v  -6.8695 -0.2342 -0.4938
v  -6.9374 0.2658 0.5529
v  -6.9374 -0.2342 0.5529
v  -6.9785 0.2658 1.5795
v  -6.9785 -0.2342 1.5795
v  -6.9863 0.2658 2.5811
v  -6.9863 -0.2342 2.5811
v  -6.9539 0.2658 3.5526
v  -6.9539 -0.2342 3.5526
v  -6.8158 0.2658 4.3960
v  -6.8158 -0.2342 4.3960
v  -6.5273 0.2658 5.0391
v  -6.5273 -0.2342 5.0391
v  -6.1137 0.2658 5.5151
v  -6.1137 -0.2342 5.5151
v  -5.5998 0.2658 5.8575
v  -5.5998 -0.2342 5.8575
v  -5.0108 0.2658 6.0998
v  -5.0108 -0.2342 6.0998
v  -4.3717 0.2658 6.2752
v  -4.3717 -0.2342 6.2752
v  -3.7076 0.2658 6.4172
v  -3.7076 -0.2342 6.4172
v  6.9862 0.2658 6.4172
v  6.9862 -0.2342 6.4172
v  6.9862 0.2658 -5.1046
v  6.9862 -0.2342 -5.1046
v  5.2018 3.8980 0.8676
v  6.0730 4.7877 0.8676
v  6.0730 4.7877 0.3676
v  5.2018 3.8980 0.3676
v  4.4145 3.0160 0.8676
v  4.4145 3.0160 0.3676
v  3.7531 2.1457 0.8676
v  3.7531 2.1457 0.3676
v  3.2597 1.2910 0.8676
v  3.2597 1.2910 0.3676
v  2.9762 0.4558 0.8676
v  2.9762 0.4558 0.3676
v  2.9446 -0.3561 0.8676
v  2.9446 -0.3561 0.3676
v  3.1487 -1.1472 0.8676
v  3.1487 -1.1472 0.3676
v  3.5250 -1.9243 0.8676
v  3.5250 -1.9243 0.3676
v  4.0450 -2.6897 0.8676
v  4.0450 -2.6897 0.3676
v  4.6798 -3.4458 0.8676
v  4.6798 -3.4458 0.3676
v  5.4008 -4.1949 0.8676
v  5.4008 -4.1949 0.3676
v  6.1792 -4.9393 0.8676
v  6.1792 -4.9393 0.3676
v  6.9863 -5.6814 0.8676
v  6.9863 -5.6814 0.3676
v  6.9863 5.6814 0.8676
v  6.9863 5.6814 0.3676
# 104 vertices

vn 0.3757 0.0000 -0.9267
vn 0.6300 0.0000 -0.7766
vn 0.0665 0.0000 -0.9978
vn -0.1623 0.0000 -0.9867
vn -0.2979 0.0000 -0.9546
vn -0.3770 0.0000 -0.9262
vn -0.3969 0.0000 -0.9179
vn -0.3160 0.0000 -0.9487
vn -0.1207 0.0000 -0.9927
vn 0.1353 0.0000 -0.9908
vn 0.3468 0.0000 -0.9379
vn 0.4581 0.0000 -0.8889
vn 0.4930 0.0000 -0.8700
vn 0.4513 0.0000 -0.8924
vn 0.2803 0.0000 -0.9599
vn -0.0261 0.0000 -0.9997
vn -0.3755 0.0000 -0.9268
vn -0.6442 0.0000 -0.7649
vn -0.7913 0.0000 -0.6114
vn -0.8559 0.0000 -0.5172
vn -0.8736 0.0000 -0.4866
vn -0.9953 0.0000 -0.0970
vn -0.9950 0.0000 -0.0998
vn -0.9961 0.0000 -0.0883
vn -0.9973 0.0000 -0.0737
vn -0.9986 0.0000 -0.0524
vn -0.9997 0.0000 -0.0239
vn -0.9999 0.0000 0.0128
vn -0.9952 0.0000 0.0977
vn -0.9577 0.0000 0.2879
vn -0.8427 0.0000 0.5384
vn -0.6606 0.0000 0.7508
vn -0.4697 0.0000 0.8828
vn -0.3231 0.0000 0.9464
vn -0.2370 0.0000 0.9715
vn -0.2091 0.0000 0.9779
vn 0.0000 0.0000 1.0000
vn 1.0000 0.0000 -0.0000
vn 0.7183 0.0000 -0.6957
vn 0.0000 -1.0000 -0.0000
vn 0.0000 1.0000 -0.0000
vn -0.7304 0.6830 -0.0000
vn -0.7070 0.7072 -0.0000
vn -0.7717 0.6360 -0.0000
vn -0.8328 0.5536 -0.0000
vn -0.9109 0.4127 -0.0000
vn -0.9833 0.1820 -0.0000
vn -0.9943 -0.1066 -0.0000
vn -0.9388 -0.3445 -0.0000
vn -0.8659 -0.5002 -0.0000
vn -0.7976 -0.6032 -0.0000
vn -0.7436 -0.6686 -0.0000
vn -0.7060 -0.7082 -0.0000
vn -0.6840 -0.7295 -0.0000
vn -0.6768 -0.7361 -0.0000
vn -0.6994 0.7147 -0.0000
vn 0.0000 0.0000 -1.0000
# 57 vertex normals

vt 0.9781 0.9002 1.5000
vt 0.9884 0.8936 1.5000
vt 0.9884 0.8936 0.5000
vt 0.9781 0.9002 0.5000
vt 0.9631 0.9035 1.5000
vt 0.9631 0.9035 0.5000
vt 0.9407 0.9018 1.5000
vt 0.9407 0.9018 0.5000
vt 0.9087 0.8934 1.5000
vt 0.9087 0.8934 0.5000
vt 0.8646 0.8767 1.5000
vt 0.8646 0.8767 0.5000
vt 0.8059 0.8501 1.5000
vt 0.8059 0.8501 0.5000
vt 0.7464 0.8246 1.5000
vt 0.7464 0.8246 0.5000
vt 0.6978 0.8122 1.5000
vt 0.6978 0.8122 0.5000
vt 0.6544 0.8123 1.5000
vt 0.6544 0.8123 0.5000
vt 0.6106 0.8246 1.5000
vt 0.6106 0.8246 0.5000
vt 0.5608 0.8485 1.5000
vt 0.5608 0.8485 0.5000
vt 0.4994 0.8837 1.5000
vt 0.4994 0.8837 0.5000
vt 0.4209 0.9295 1.5000
vt 0.4209 0.9295 0.5000
vt 0.3400 0.9661 1.5000
vt 0.3400 0.9661 0.5000
vt 0.2736 0.9764 1.5000
vt 0.2736 0.9764 0.5000
vt 0.2193 0.9650 1.5000
vt 0.2193 0.9650 0.5000
vt 0.1748 0.9361 1.5000
vt 0.1748 0.9361 0.5000
vt 0.1374 0.8941 1.5000
vt 0.1374 0.8941 0.5000
vt 0.1049 0.8434 1.5000
vt 0.1049 0.8434 0.5000
vt 0.0749 0.7883 1.5000
vt 0.0749 0.7883 0.5000
vt 0.0675 0.7136 1.5000
vt 0.0675 0.7136 0.5000
vt 0.0868 0.6351 1.5000
vt 0.0868 0.6351 0.5000
vt 0.0808 0.5615 1.5000
vt 0.0808 0.5615 0.5000
vt 0.0762 0.4890 1.5000
vt 0.0762 0.4890 0.5000
vt 0.0734 0.4178 1.5000
vt 0.0734 0.4178 0.5000
vt 0.0580 0.3483 1.5000
vt 0.0580 0.3483 0.5000
vt 0.0489 0.2852 1.5000
vt 0.0489 0.2852 0.5000
vt 0.0583 0.2267 1.5000
vt 0.0583 0.2267 0.5000
vt 0.0686 0.1611 1.5000
vt 0.0686 0.1611 0.5000
vt 0.1098 0.1092 1.5000
vt 0.1098 0.1092 0.5000
vt 0.1447 0.0854 1.5000
vt 0.1447 0.0854 0.5000
vt 0.1847 0.0686 1.5000
vt 0.1847 0.0686 0.5000
vt 0.2281 0.0565 1.5000
vt 0.2281 0.0565 0.5000
vt 0.2938 0.0550 1.5000
vt 0.2938 0.0550 0.5000
vt 0.9962 0.0929 1.5000
vt 0.9962 0.0929 0.5000
vt 0.9962 0.8854 1.5000
vt 0.9962 0.8854 0.5000
vt -0.4110 3.8683 0.5000
vt 0.3531 4.7581 0.5000
vt 0.3531 4.7581 0.0000
vt -0.4110 3.8683 0.0000
vt -1.1015 2.9864 0.5000
vt -1.1015 2.9864 0.0000
vt -1.6816 2.1161 0.5000
vt -1.6816 2.1161 0.0000
vt -2.1143 1.2614 0.5000
vt -2.1143 1.2614 0.0000
vt -2.3630 0.4261 0.5000
vt -2.3630 0.4261 0.0000
vt -2.3907 -0.3857 0.5000
vt -2.3907 -0.3857 0.0000
vt -2.2117 -1.1768 0.5000
vt -2.2117 -1.1768 0.0000
vt -1.8816 -1.9539 0.5000
vt -1.8816 -1.9539 0.0000
vt -1.4256 -2.7193 0.5000
vt -1.4256 -2.7193 0.0000
vt -0.8688 -3.4754 0.5000
vt -0.8688 -3.4754 0.0000
vt -0.2365 -4.2245 0.5000
vt -0.2365 -4.2245 0.0000
vt 0.4462 -4.9689 0.5000
vt 0.4462 -4.9689 0.0000
vt 1.1541 -5.7110 0.5000
vt 1.1541 -5.7110 0.0000
vt 1.1541 5.6517 0.5000
vt 1.1541 5.6517 0.0000
# 104 texture coords

g promotion
usemtl Material__85
s 1
f 1/1/1 2/2/2 3/3/2 4/4/1 
s 3
f 5/5/3 1/1/1 4/4/1 6/6/3 
s 2
f 7/7/4 5/5/3 6/6/3 8/8/4 
f 9/9/5 7/7/4 8/8/4 10/10/5 
f 11/11/6 9/9/5 10/10/5 12/12/6 
f 13/13/7 11/11/6 12/12/6 14/14/7 
f 15/15/8 13/13/7 14/14/7 16/16/8 
f 17/17/9 15/15/8 16/16/8 18/18/9 
f 19/19/10 17/17/9 18/18/9 20/20/10 
f 21/21/11 19/19/10 20/20/10 22/22/11 
f 23/23/12 21/21/11 22/22/11 24/24/12 
f 25/25/13 23/23/12 24/24/12 26/26/13 
f 27/27/14 25/25/13 26/26/13 28/28/14 
f 29/29/15 27/27/14 28/28/14 30/30/15 
f 31/31/16 29/29/15 30/30/15 32/32/16 
f 33/33/17 31/31/16 32/32/16 34/34/17 
f 35/35/18 33/33/17 34/34/17 36/36/18 
f 37/37/19 35/35/18 36/36/18 38/38/19 
f 39/39/20 37/37/19 38/38/19 40/40/20 
f 41/41/21 39/39/20 40/40/20 42/42/21 
s 4
f 43/43/22 41/41/23 42/42/23 44/44/22 
f 45/45/24 43/43/22 44/44/22 46/46/24 
f 47/47/25 45/45/24 46/46/24 48/48/25 
f 49/49/26 47/47/25 48/48/25 50/50/26 
f 51/51/27 49/49/26 50/50/26 52/52/27 
f 53/53/28 51/51/27 52/52/27 54/54/28 
f 55/55/29 53/53/28 54/54/28 56/56/29 
f 57/57/30 55/55/29 56/56/29 58/58/30 
f 59/59/31 57/57/30 58/58/30 60/60/31 
f 61/61/32 59/59/31 60/60/31 62/62/32 
f 63/63/33 61/61/32 62/62/32 64/64/33 
f 65/65/34 63/63/33 64/64/33 66/66/34 
f 67/67/35 65/65/34 66/66/34 68/68/35 
f 69/69/36 67/67/35 68/68/35 70/70/36 
s 2
f 71/71/37 69/69/37 70/70/37 72/72/37 
s 4
f 73/73/38 71/71/38 72/72/38 74/74/38 
s 3
f 2/2/2 73/73/39 74/74/39 3/3/2 
s 16
f 36/36/40 34/34/40 32/32/40 38/38/40 
f 38/38/40 32/32/40 30/30/40 40/40/40 
f 40/40/40 30/30/40 28/28/40 42/42/40 
f 44/44/40 42/42/40 28/28/40 26/26/40 
f 46/46/40 44/44/40 26/26/40 48/48/40 
f 50/50/40 48/48/40 26/26/40 52/52/40 
f 54/54/40 52/52/40 26/26/40 56/56/40 
f 58/58/40 56/56/40 26/26/40 60/60/40 
f 62/62/40 60/60/40 26/26/40 64/64/40 
f 66/66/40 64/64/40 26/26/40 68/68/40 
f 70/70/40 68/68/40 26/26/40 24/24/40 
f 70/70/40 24/24/40 22/22/40 20/20/40 
f 70/70/40 20/20/40 18/18/40 16/16/40 
f 70/70/40 16/16/40 14/14/40 12/12/40 
f 70/70/40 12/12/40 10/10/40 8/8/40 
f 70/70/40 8/8/40 6/6/40 4/4/40 
f 70/70/40 4/4/40 3/3/40 74/74/40 
f 70/70/40 74/74/40 72/72/40 
f 69/69/41 71/71/41 73/73/41 2/2/41 
f 69/69/41 2/2/41 1/1/41 5/5/41 
f 69/69/41 5/5/41 7/7/41 9/9/41 
f 69/69/41 9/9/41 11/11/41 13/13/41 
f 69/69/41 13/13/41 15/15/41 17/17/41 
f 69/69/41 17/17/41 19/19/41 21/21/41 
f 69/69/41 21/21/41 23/23/41 25/25/41 
f 31/31/41 33/33/41 35/35/41 37/37/41 
f 29/29/41 31/31/41 37/37/41 39/39/41 
f 27/27/41 29/29/41 39/39/41 41/41/41 
f 27/27/41 41/41/41 43/43/41 25/25/41 
f 25/25/41 43/43/41 45/45/41 47/47/41 
f 25/25/41 47/47/41 49/49/41 51/51/41 
f 25/25/41 51/51/41 53/53/41 55/55/41 
f 25/25/41 55/55/41 57/57/41 59/59/41 
f 25/25/41 59/59/41 61/61/41 63/63/41 
f 25/25/41 63/63/41 65/65/41 67/67/41 
f 69/69/41 25/25/41 67/67/41 
s 1
f 75/75/42 76/76/43 77/77/43 78/78/42 
s 3
f 79/79/44 75/75/42 78/78/42 80/80/44 
s 2
f 81/81/45 79/79/44 80/80/44 82/82/45 
f 83/83/46 81/81/45 82/82/45 84/84/46 
f 85/85/47 83/83/46 84/84/46 86/86/47 
f 87/87/48 85/85/47 86/86/47 88/88/48 
f 89/89/49 87/87/48 88/88/48 90/90/49 
f 91/91/50 89/89/49 90/90/49 92/92/50 
f 93/93/51 91/91/50 92/92/50 94/94/51 
f 95/95/52 93/93/51 94/94/51 96/96/52 
f 97/97/53 95/95/52 96/96/52 98/98/53 
f 99/99/54 97/97/53 98/98/53 100/100/54 
f 101/101/55 99/99/54 100/100/54 102/102/55 
s 4
f 103/103/38 101/101/38 102/102/38 104/104/38 
s 3
f 76/76/43 103/103/56 104/104/56 77/77/43 
s 16
f 90/90/57 88/88/57 86/86/57 84/84/57 
f 92/92/57 90/90/57 84/84/57 82/82/57 
f 94/94/57 92/92/57 82/82/57 80/80/57 
f 96/96/57 94/94/57 80/80/57 78/78/57 
f 98/98/57 96/96/57 78/78/57 100/100/57 
f 100/100/57 78/78/57 77/77/57 102/102/57 
f 102/102/57 77/77/57 104/104/57 
f 101/101/37 103/103/37 76/76/37 99/99/37 
f 85/85/37 87/87/37 89/89/37 83/83/37 
f 83/83/37 89/89/37 91/91/37 81/81/37 
f 81/81/37 91/91/37 93/93/37 79/79/37 
f 79/79/37 93/93/37 95/95/37 75/75/37 
f 75/75/37 95/95/37 97/97/37 99/99/37 
f 76/76/37 75/75/37 99/99/37 
# 98 polygons - 4 triangles

