# 3ds Max Wavefront OBJ Exporter v0.97b - (c)2007 guruware
# File Created: 24.01.2016 14:46:16

mtllib security.mtl

#
# object security
#

v  1.0134 0.8289 -0.0339
v  1.1987 1.0182 -0.0339
v  1.1987 1.0182 -0.1403
v  1.0134 0.8289 -0.1403
v  0.8460 0.6414 -0.0339
v  0.8460 0.6414 -0.1403
v  0.7053 0.4563 -0.0339
v  0.7053 0.4563 -0.1403
v  0.6004 0.2745 -0.0339
v  0.6004 0.2745 -0.1403
v  0.5401 0.0969 -0.0339
v  0.5401 0.0969 -0.1403
v  0.5334 -0.0757 -0.0339
v  0.5334 -0.0757 -0.1403
v  0.5768 -0.2440 -0.0339
v  0.5768 -0.2440 -0.1403
v  0.6568 -0.4092 -0.0339
v  0.6568 -0.4092 -0.1403
v  0.7674 -0.5720 -0.0339
v  0.7674 -0.5720 -0.1403
v  0.9024 -0.7328 -0.0339
v  0.9024 -0.7328 -0.1403
v  1.0557 -0.8921 -0.0339
v  1.0557 -0.8921 -0.1403
v  1.2213 -1.0504 -0.0339
v  1.2213 -1.0504 -0.1403
v  1.3929 -1.2082 -0.0339
v  1.3929 -1.2082 -0.1403
v  1.3929 1.2082 -0.0339
v  1.3929 1.2082 -0.1403
v  0.2041 0.0554 -1.1581
v  0.7017 0.0554 -1.2725
v  0.7017 -0.0509 -1.2725
v  0.2041 -0.0509 -1.1581
v  -0.2680 0.0554 -1.0363
v  -0.2680 -0.0509 -1.0363
v  -0.6892 0.0554 -0.8996
v  -0.6892 -0.0509 -0.8996
v  -1.0341 0.0554 -0.7404
v  -1.0341 -0.0509 -0.7404
v  -1.2771 0.0554 -0.5515
v  -1.2771 -0.0509 -0.5515
v  -1.3929 0.0554 -0.3252
v  -1.3929 -0.0509 -0.3252
v  -1.3559 0.0554 -0.0541
v  -1.3559 -0.0509 -0.0541
v  -1.2088 0.0554 0.2193
v  -1.2088 -0.0509 0.2193
v  -1.0163 0.0554 0.4522
v  -1.0163 -0.0509 0.4522
v  -0.7859 0.0554 0.6513
v  -0.7859 -0.0509 0.6513
v  -0.5251 0.0554 0.8235
v  -0.5251 -0.0509 0.8235
v  -0.2416 0.0554 0.9754
v  -0.2416 -0.0509 0.9754
v  0.0570 0.0554 1.1138
v  0.0570 -0.0509 1.1138
v  0.3633 0.0554 1.2454
v  0.3633 -0.0509 1.2454
v  1.3921 0.0554 1.2860
v  1.3921 -0.0509 1.2860
v  1.3921 0.0554 -1.2860
v  1.3921 -0.0509 -1.2860
# 64 vertices

vn -0.7304 0.6830 -0.0000
vn -0.7070 0.7072 -0.0000
vn -0.7717 0.6360 -0.0000
vn -0.8328 0.5536 -0.0000
vn -0.9109 0.4127 -0.0000
vn -0.9833 0.1820 -0.0000
vn -0.9943 -0.1066 -0.0000
vn -0.9388 -0.3445 -0.0000
vn -0.8659 -0.5002 -0.0000
vn -0.7976 -0.6032 -0.0000
vn -0.7436 -0.6686 -0.0000
vn -0.7060 -0.7082 -0.0000
vn -0.6840 -0.7295 -0.0000
vn -0.6768 -0.7361 -0.0000
vn 1.0000 0.0000 -0.0000
vn -0.6994 0.7147 -0.0000
vn 0.0000 0.0000 -1.0000
vn 0.0000 0.0000 1.0000
vn -0.2370 0.0000 -0.9715
vn -0.2240 0.0000 -0.9746
vn -0.2795 0.0000 -0.9602
vn -0.3645 0.0000 -0.9312
vn -0.5198 0.0000 -0.8543
vn -0.7704 0.0000 -0.6376
vn -0.9858 0.0000 -0.1678
vn -0.9509 0.0000 0.3094
vn -0.8297 0.0000 0.5582
vn -0.7148 0.0000 0.6993
vn -0.6037 0.0000 0.7972
vn -0.5122 0.0000 0.8589
vn -0.4466 0.0000 0.8947
vn -0.4078 0.0000 0.9131
vn -0.3950 0.0000 0.9187
vn -0.0394 0.0000 0.9992
vn -0.0195 0.0000 -0.9998
vn 0.0000 -1.0000 -0.0000
vn 0.0000 1.0000 -0.0000
# 37 vertex normals

vt 0.8630 0.8762 1.5000
vt 0.9215 0.9304 1.5000
vt 0.9215 0.9304 0.5000
vt 0.8630 0.8762 0.5000
vt 0.8101 0.8224 1.5000
vt 0.8101 0.8224 0.5000
vt 0.7656 0.7694 1.5000
vt 0.7656 0.7694 0.5000
vt 0.7325 0.7173 1.5000
vt 0.7325 0.7173 0.5000
vt 0.7134 0.6665 1.5000
vt 0.7134 0.6665 0.5000
vt 0.7113 0.6170 1.5000
vt 0.7113 0.6170 0.5000
vt 0.7250 0.5688 1.5000
vt 0.7250 0.5688 0.5000
vt 0.7503 0.5215 1.5000
vt 0.7503 0.5215 0.5000
vt 0.7852 0.4748 1.5000
vt 0.7852 0.4748 0.5000
vt 0.8279 0.4288 1.5000
vt 0.8279 0.4288 0.5000
vt 0.8763 0.3831 1.5000
vt 0.8763 0.3831 0.5000
vt 0.9286 0.3378 1.5000
vt 0.9286 0.3378 0.5000
vt 0.9829 0.2926 1.5000
vt 0.9829 0.2926 0.5000
vt 0.9829 0.9848 1.5000
vt 0.9829 0.9848 0.5000
vt 0.5643 0.9483 1.5000
vt 0.7436 0.9921 1.5000
vt 0.7436 0.9921 0.5000
vt 0.5643 0.9483 0.5000
vt 0.4133 0.8748 1.5000
vt 0.4133 0.8748 0.5000
vt 0.2711 0.7741 1.5000
vt 0.2711 0.7741 0.5000
vt 0.1468 0.7133 1.5000
vt 0.1468 0.7133 0.5000
vt 0.0592 0.6410 1.5000
vt 0.0592 0.6410 0.5000
vt 0.0174 0.5544 1.5000
vt 0.0174 0.5544 0.5000
vt 0.0308 0.4508 1.5000
vt 0.0308 0.4508 0.5000
vt 0.0550 0.4215 1.5000
vt 0.0550 0.4215 0.5000
vt 0.1244 0.3324 1.5000
vt 0.1244 0.3324 0.5000
vt 0.2266 0.2536 1.5000
vt 0.2266 0.2536 0.5000
vt 0.3158 0.1877 1.5000
vt 0.3158 0.1877 0.5000
vt 0.4036 0.1323 1.5000
vt 0.4036 0.1323 0.5000
vt 0.5113 0.0794 1.5000
vt 0.5113 0.0794 0.5000
vt 0.6216 0.0290 1.5000
vt 0.6216 0.0290 0.5000
vt 0.9925 0.0135 1.5000
vt 0.9925 0.0135 0.5000
vt 0.9925 0.9972 1.5000
vt 0.9925 0.9972 0.5000
# 64 texture coords

g security
usemtl Material__94
s 1
f 1/1/1 2/2/2 3/3/2 4/4/1 
s 3
f 5/5/3 1/1/1 4/4/1 6/6/3 
s 2
f 7/7/4 5/5/3 6/6/3 8/8/4 
f 9/9/5 7/7/4 8/8/4 10/10/5 
f 11/11/6 9/9/5 10/10/5 12/12/6 
f 13/13/7 11/11/6 12/12/6 14/14/7 
f 15/15/8 13/13/7 14/14/7 16/16/8 
f 17/17/9 15/15/8 16/16/8 18/18/9 
f 19/19/10 17/17/9 18/18/9 20/20/10 
f 21/21/11 19/19/10 20/20/10 22/22/11 
f 23/23/12 21/21/11 22/22/11 24/24/12 
f 25/25/13 23/23/12 24/24/12 26/26/13 
f 27/27/14 25/25/13 26/26/13 28/28/14 
s 4
f 29/29/15 27/27/15 28/28/15 30/30/15 
s 3
f 2/2/2 29/29/16 30/30/16 3/3/2 
s 16
f 16/16/17 14/14/17 12/12/17 10/10/17 
f 18/18/17 16/16/17 10/10/17 8/8/17 
f 20/20/17 18/18/17 8/8/17 6/6/17 
f 22/22/17 20/20/17 6/6/17 4/4/17 
f 24/24/17 22/22/17 4/4/17 26/26/17 
f 26/26/17 4/4/17 3/3/17 28/28/17 
f 28/28/17 3/3/17 30/30/17 
f 27/27/18 29/29/18 2/2/18 25/25/18 
f 11/11/18 13/13/18 15/15/18 9/9/18 
f 9/9/18 15/15/18 17/17/18 7/7/18 
f 7/7/18 17/17/18 19/19/18 5/5/18 
f 5/5/18 19/19/18 21/21/18 1/1/18 
f 1/1/18 21/21/18 23/23/18 25/25/18 
f 2/2/18 1/1/18 25/25/18 
usemtl Material__86
s 1
f 31/31/19 32/32/20 33/33/20 34/34/19 
s 3
f 35/35/21 31/31/19 34/34/19 36/36/21 
s 2
f 37/37/22 35/35/21 36/36/21 38/38/22 
f 39/39/23 37/37/22 38/38/22 40/40/23 
f 41/41/24 39/39/23 40/40/23 42/42/24 
f 43/43/25 41/41/24 42/42/24 44/44/25 
f 45/45/26 43/43/25 44/44/25 46/46/26 
f 47/47/27 45/45/26 46/46/26 48/48/27 
f 49/49/28 47/47/27 48/48/27 50/50/28 
f 51/51/29 49/49/28 50/50/28 52/52/29 
f 53/53/30 51/51/29 52/52/29 54/54/30 
f 55/55/31 53/53/30 54/54/30 56/56/31 
f 57/57/32 55/55/31 56/56/31 58/58/32 
f 59/59/33 57/57/32 58/58/32 60/60/33 
s 4
f 61/61/34 59/59/34 60/60/34 62/62/34 
s 2
f 63/63/15 61/61/15 62/62/15 64/64/15 
s 4
f 32/32/35 63/63/35 64/64/35 33/33/35 
s 16
f 46/46/36 44/44/36 42/42/36 40/40/36 
f 48/48/36 46/46/36 40/40/36 50/50/36 
f 50/50/36 40/40/36 38/38/36 52/52/36 
f 54/54/36 52/52/36 38/38/36 36/36/36 
f 56/56/36 54/54/36 36/36/36 34/34/36 
f 58/58/36 56/56/36 34/34/36 60/60/36 
f 60/60/36 34/34/36 33/33/36 64/64/36 
f 60/60/36 64/64/36 62/62/36 
f 59/59/37 61/61/37 63/63/37 32/32/37 
f 59/59/37 32/32/37 31/31/37 57/57/37 
f 41/41/37 43/43/37 45/45/37 39/39/37 
f 39/39/37 45/45/37 47/47/37 49/49/37 
f 37/37/37 39/39/37 49/49/37 51/51/37 
f 37/37/37 51/51/37 53/53/37 35/35/37 
f 35/35/37 53/53/37 55/55/37 31/31/37 
f 31/31/37 55/55/37 57/57/37 
# 58 polygons - 4 triangles

